<?xml version="1.0" encoding="UTF-8"?>
<!--Generator: Apple Native CoreSVG 175.5-->
<!DOCTYPE svg
PUBLIC "-//W3C//DTD SVG 1.1//EN"
       "http://www.w3.org/Graphics/SVG/1.1/DTD/svg11.dtd">
<svg version="1.1" xmlns="http://www.w3.org/2000/svg" xmlns:xlink="http://www.w3.org/1999/xlink" width="38.6719" height="24.2139">
 <g>
  <rect height="24.2139" opacity="0" width="38.6719" x="0" y="0"/>
  <path d="M0 23.042C0 23.7451 0.46875 24.2139 1.17188 24.2139L37.5146 24.2139C38.2178 24.2139 38.6719 23.7451 38.6719 23.042L38.6719 1.15723C38.6719 0.454102 38.2178 0 37.5146 0L1.17188 0C0.46875 0 0 0.454102 0 1.15723ZM2.3584 21.4307L2.3584 2.7832C2.3584 2.46094 2.47559 2.3584 2.7832 2.3584L35.8887 2.3584C36.2109 2.3584 36.3135 2.46094 36.3135 2.7832L36.3135 21.4307C36.3135 21.7383 36.2109 21.8555 35.8887 21.8555L2.7832 21.8555C2.47559 21.8555 2.3584 21.7383 2.3584 21.4307ZM3.94043 19.4092C3.94043 19.9658 4.24805 20.2734 4.79004 20.2734L33.8965 20.2734C34.4238 20.2734 34.7461 19.9658 34.7461 19.4092L34.7461 4.79004C34.7461 4.24805 34.4238 3.92578 33.8965 3.92578L4.79004 3.92578C4.24805 3.92578 3.94043 4.24805 3.94043 4.79004ZM5.41992 18.457L5.41992 5.74219C5.41992 5.52246 5.52246 5.40527 5.74219 5.40527L32.9297 5.40527C33.1494 5.40527 33.2666 5.52246 33.2666 5.74219L33.2666 18.457C33.2666 18.6768 33.1494 18.7939 32.9297 18.7939L5.74219 18.7939C5.52246 18.7939 5.41992 18.6768 5.41992 18.457ZM19.2773 20.2734C22.4414 20.2734 24.9609 17.0947 24.9609 12.085C24.9609 7.08984 22.4414 3.92578 19.2773 3.92578C16.2012 3.92578 13.7256 7.08984 13.7256 12.085C13.7256 17.0947 16.2012 20.2734 19.2773 20.2734ZM19.2773 18.5449C17.1973 18.5449 15.4248 16.0693 15.4248 12.085C15.4248 8.11523 17.1973 5.6543 19.2773 5.6543C21.4453 5.6543 23.2764 8.11523 23.2764 12.085C23.2764 16.0693 21.4453 18.5449 19.2773 18.5449Z" fill="#ffffff"/>
 </g>
</svg>
