<?xml version="1.0" encoding="UTF-8"?>
<!--Generator: Apple Native CoreSVG 175.5-->
<!DOCTYPE svg
PUBLIC "-//W3C//DTD SVG 1.1//EN"
       "http://www.w3.org/Graphics/SVG/1.1/DTD/svg11.dtd">
<svg version="1.1" xmlns="http://www.w3.org/2000/svg" xmlns:xlink="http://www.w3.org/1999/xlink" width="29.8828" height="29.8975">
 <g>
  <rect height="29.8975" opacity="0" width="29.8828" x="0" y="0"/>
  <path d="M15.5566 26.2061C18.3398 26.2061 20.6836 21.958 21.2842 20.9619C22.0459 19.7168 21.6943 18.4717 21.6943 17.7393C21.6943 17.2852 23.2471 16.1572 23.2471 14.8242C23.2471 13.4766 20.2441 12.3633 20.2441 11.8213C20.2441 11.4697 20.5371 11.0449 20.8301 11.0449C21.4014 11.0449 22.9834 13.0811 23.9502 13.0811C24.5361 13.0811 24.7119 12.5684 24.9463 12.5684C25.3418 12.5684 25.6494 16.9189 27.6709 17.8125L28.2861 16.4648C26.4258 15.9814 27.1143 10.9717 25.1074 10.9717C24.4629 10.9717 24.0674 11.543 23.8184 11.543C23.6572 11.543 23.2764 11.2207 22.4121 10.5176C21.9873 10.1807 21.5479 9.72656 20.7568 9.72656C19.79 9.72656 18.8525 10.8252 18.8525 11.8359C18.8525 13.4326 21.7676 14.2676 21.7676 14.8242C21.7676 15.1611 21.6357 15.4248 21.0938 16.04C20.4932 16.7139 20.2148 17.168 20.2148 17.7393C20.2148 17.9883 20.2441 18.2227 20.2588 18.4424C20.332 19.4238 20.2881 19.79 20.0098 20.2588C19.3359 21.2988 17.417 24.7266 15.5566 24.7266C13.9014 24.7266 14.0479 22.3535 14.0479 20.1562C14.0479 18.0176 12.3486 16.4062 10.0928 16.4062C8.34961 16.4062 7.51465 15.5566 7.51465 13.916C7.51465 11.6309 9.91699 10.1367 12.2021 10.1367C13.7402 10.1367 14.9561 10.9131 16.1572 10.9131C17.1387 10.9131 17.8271 9.44824 17.8271 8.36426C17.8271 7.00195 14.9414 5.49316 14.0625 5.49316C13.3447 5.49316 13.0371 5.91797 12.9785 6.84082L13.2715 6.81152L12.8027 6.44531C12.1875 5.99121 11.7041 5.72754 11.1475 5.72754C9.74121 5.72754 9.68262 7.61719 8.93555 7.61719C8.74512 7.61719 8.61328 7.48535 8.61328 7.28027C8.61328 6.63574 10.1807 5.31738 10.1953 3.50098L10.21 2.31445L8.81836 2.31445L8.81836 3.63281C8.81836 5.39062 7.25098 6.03516 7.25098 7.42676C7.25098 8.27637 7.85156 8.83301 8.77441 8.83301C10.5176 8.83301 10.5469 6.9873 11.25 6.9873C11.8066 7.00195 12.4512 7.96875 13.5645 7.96875C14.2383 7.96875 14.5605 7.5 14.5312 6.67969L14.1211 6.81152C15.0146 7.13379 16.4355 7.83691 16.4355 8.49609C16.4355 8.87695 16.2744 9.43359 15.9668 9.43359C15.3369 9.43359 13.6816 8.65723 12.2021 8.65723C9.11133 8.65723 6.03516 10.8105 6.03516 13.916C6.03516 16.3916 7.5 17.8857 10.0928 17.8857C11.5137 17.8857 12.5684 18.8379 12.5684 20.1562C12.5684 22.3242 12.3193 26.2061 15.5566 26.2061ZM19.5117 6.02051C19.834 6.02051 20.127 6.32812 20.6689 6.32812C21.0059 6.32812 21.2549 6.02051 21.2549 5.625C21.2549 4.90723 20.4492 4.36523 19.3945 4.36523C18.1494 4.36523 17.4316 4.77539 17.4316 5.49316C17.4316 5.96191 17.7832 6.29883 18.252 6.29883C18.7354 6.29883 18.9551 6.02051 19.5117 6.02051ZM14.9414 29.8828C23.1152 29.8828 29.8828 23.1006 29.8828 14.9414C29.8828 6.76758 23.1006 0 14.9268 0C6.76758 0 0 6.76758 0 14.9414C0 23.1006 6.78223 29.8828 14.9414 29.8828ZM14.9414 27.8906C7.86621 27.8906 1.99219 22.0166 1.99219 14.9414C1.99219 7.86621 7.85156 1.99219 14.9268 1.99219C22.002 1.99219 27.8906 7.86621 27.8906 14.9414C27.8906 22.0166 22.0166 27.8906 14.9414 27.8906Z" fill="#a9a9a9"/>
 </g>
</svg>
