<?xml version="1.0" encoding="UTF-8"?>
<!--Generator: Apple Native CoreSVG 175.5-->
<!DOCTYPE svg
PUBLIC "-//W3C//DTD SVG 1.1//EN"
       "http://www.w3.org/Graphics/SVG/1.1/DTD/svg11.dtd">
<svg version="1.1" xmlns="http://www.w3.org/2000/svg" xmlns:xlink="http://www.w3.org/1999/xlink" width="29.8828" height="29.8975">
 <g>
  <rect height="29.8975" opacity="0" width="29.8828" x="0" y="0"/>
  <path d="M14.9414 29.8828C23.1152 29.8828 29.8828 23.1006 29.8828 14.9414C29.8828 6.76758 23.1006 0 14.9268 0C6.76758 0 0 6.76758 0 14.9414C0 23.1006 6.78223 29.8828 14.9414 29.8828ZM14.9414 27.3926C8.02734 27.3926 2.50488 21.8555 2.50488 14.9414C2.50488 8.02734 8.0127 2.49023 14.9268 2.49023C21.8408 2.49023 27.3926 8.02734 27.3926 14.9414C27.3926 21.8555 21.8555 27.3926 14.9414 27.3926ZM15.2344 22.0166C17.7246 22.0166 19.7021 20.9619 20.4639 18.8232C20.5518 18.5889 20.6104 18.3398 20.6104 18.0762C20.6104 17.5488 20.2441 17.1826 19.7168 17.1826C19.2188 17.1826 18.9258 17.4609 18.7646 17.959C18.3545 19.4531 16.9189 20.2588 15.293 20.2588C12.7588 20.2588 11.3818 17.8271 11.3818 14.9707C11.3818 12.1143 12.7881 9.71191 15.293 9.71191C16.8018 9.71191 18.208 10.5469 18.6621 12.0557C18.8379 12.6123 19.0869 12.8174 19.5996 12.8174C20.1562 12.8174 20.5078 12.4658 20.5078 11.9238C20.5078 11.6748 20.4492 11.4258 20.3613 11.1914C19.6436 9.21387 17.6221 7.9541 15.2344 7.9541C11.7041 7.9541 9.41895 10.7959 9.41895 14.9707C9.41895 19.0137 11.5137 22.0166 15.2344 22.0166ZM8.26172 14.165L15.5713 14.165C15.9814 14.165 16.2891 13.8428 16.2891 13.4473C16.2891 13.0078 15.9814 12.7148 15.5713 12.7148L8.26172 12.7148C7.85156 12.7148 7.54395 13.0078 7.54395 13.4473C7.54395 13.8428 7.85156 14.165 8.26172 14.165ZM8.26172 17.1387L15.5713 17.1387C15.9814 17.1387 16.2891 16.8164 16.2891 16.4062C16.2891 15.9814 15.9814 15.6885 15.5713 15.6885L8.26172 15.6885C7.85156 15.6885 7.54395 15.9814 7.54395 16.4062C7.54395 16.8164 7.85156 17.1387 8.26172 17.1387Z" fill="#ffffff"/>
 </g>
</svg>
