<svg width="50" height="50" viewBox="0 0 50 50" fill="none" xmlns="http://www.w3.org/2000/svg">
<rect width="50" height="50" rx="15" fill="white"/>
<path d="M16.2485 17.5022C16.2791 17.491 16.3114 17.4853 16.344 17.4853H20.2971C20.3495 17.4853 20.4008 17.5 20.4452 17.5278L21.6822 18.3009C23.7661 19.6034 26.4103 19.6034 28.4943 18.3009L29.7313 17.5278C29.7757 17.5 29.827 17.4853 29.8794 17.4853H33.8142C33.8497 17.4853 33.8849 17.4921 33.9179 17.5053L38.4908 19.3344C38.6104 19.3823 38.6818 19.5058 38.6636 19.6334L37.8454 25.3606C37.822 25.5246 37.6618 25.6323 37.5011 25.5922L34.9271 24.9487C34.0453 24.7282 33.1912 25.3951 33.1912 26.304V35.6471C33.1912 37.0359 32.0653 38.1618 30.6765 38.1618H19.5C18.1112 38.1618 16.9853 37.0359 16.9853 35.6471V26.3291C16.9853 25.4009 16.0969 24.7308 15.2044 24.9858L13.0797 25.5929C12.9313 25.6353 12.7766 25.5494 12.7342 25.401L11.0921 19.6536C11.0518 19.5125 11.1274 19.3643 11.2653 19.3142L16.2485 17.5022Z" stroke="#A9A9A9" stroke-width="1.67647"/>
<path d="M21.1765 17.7647L25.0883 16.0883L29 17.7647" stroke="#A9A9A9" stroke-width="1.67647" stroke-linecap="round"/>
<path d="M25.0883 16.0883V13.2941" stroke="#A9A9A9" stroke-width="1.67647" stroke-linecap="round"/>
<path d="M25.0882 13.2941L26.3702 12.0678C28.0967 10.4164 26.0551 7.65612 23.9706 8.82348V8.82348" stroke="#A9A9A9" stroke-width="1.67647" stroke-linecap="round"/>
</svg>
