<?xml version="1.0" encoding="UTF-8"?>
<!--Generator: Apple Native CoreSVG 175.5-->
<!DOCTYPE svg
PUBLIC "-//W3C//DTD SVG 1.1//EN"
       "http://www.w3.org/Graphics/SVG/1.1/DTD/svg11.dtd">
<svg version="1.1" xmlns="http://www.w3.org/2000/svg" xmlns:xlink="http://www.w3.org/1999/xlink" width="30.791" height="22.8076">
 <g>
  <rect height="22.8076" opacity="0" width="30.791" x="0" y="0"/>
  <path d="M15.3955 5.03906C19.3799 5.03906 20.0244 2.06543 22.3535 2.06543C24.7266 2.06543 25.1074 5.03906 29.6777 5.03906L29.751 5.03906C30.3223 5.03906 30.791 4.57031 30.791 3.99902C30.791 3.42773 30.3223 2.97363 29.751 2.97363L29.6777 2.97363C28.0957 2.97363 27.2168 2.31445 26.1182 1.53809C25.166 0.849609 23.9795 0 22.3535 0C20.6689 0 19.4678 0.893555 18.5156 1.61133C17.5049 2.37305 16.6992 2.97363 15.3955 2.97363C14.0771 2.97363 13.2861 2.37305 12.2754 1.61133C11.3232 0.893555 10.1221 0 8.4375 0C6.81152 0 5.625 0.849609 4.67285 1.53809C3.57422 2.31445 2.68066 2.97363 1.11328 2.97363L1.04004 2.97363C0.454102 2.97363 0 3.42773 0 3.99902C0 4.57031 0.454102 5.03906 1.04004 5.03906L1.11328 5.03906C5.66895 5.03906 6.06445 2.06543 8.4375 2.06543C10.7666 2.06543 11.3965 5.03906 15.3955 5.03906ZM15.3955 13.8867C19.3799 13.8867 20.0244 10.9131 22.3535 10.9131C24.7266 10.9131 25.1074 13.8867 29.6777 13.8867L29.751 13.8867C30.3223 13.8867 30.791 13.4326 30.791 12.8613C30.791 12.29 30.3223 11.8213 29.751 11.8213L29.6777 11.8213C28.0957 11.8213 27.2168 11.1768 26.1182 10.3857C25.166 9.69727 23.9795 8.84766 22.3535 8.84766C20.6689 8.84766 19.4678 9.75586 18.5156 10.459C17.5049 11.2207 16.6992 11.8213 15.3955 11.8213C14.0771 11.8213 13.2861 11.2207 12.2754 10.459C11.3232 9.75586 10.1221 8.84766 8.4375 8.84766C6.81152 8.84766 5.625 9.69727 4.67285 10.3857C3.57422 11.1768 2.68066 11.8213 1.11328 11.8213L1.04004 11.8213C0.454102 11.8213 0 12.29 0 12.8613C0 13.4326 0.454102 13.8867 1.04004 13.8867L1.11328 13.8867C5.66895 13.8867 6.06445 10.9131 8.4375 10.9131C10.7666 10.9131 11.3965 13.8867 15.3955 13.8867ZM15.3955 22.749C19.3799 22.749 20.0244 19.7754 22.3535 19.7754C24.7266 19.7754 25.1074 22.749 29.6777 22.749L29.751 22.749C30.3223 22.749 30.791 22.2803 30.791 21.709C30.791 21.1377 30.3223 20.6836 29.751 20.6836L29.6777 20.6836C28.0957 20.6836 27.2168 20.0244 26.1182 19.248C25.166 18.5449 23.9795 17.71 22.3535 17.71C20.6689 17.71 19.4678 18.6035 18.5156 19.3066C17.5049 20.083 16.6992 20.6836 15.3955 20.6836C14.0771 20.6836 13.2861 20.083 12.2754 19.3066C11.3232 18.6035 10.1221 17.71 8.4375 17.71C6.81152 17.71 5.625 18.5449 4.67285 19.248C3.57422 20.0244 2.68066 20.6836 1.11328 20.6836L1.04004 20.6836C0.454102 20.6836 0 21.1377 0 21.709C0 22.2803 0.454102 22.749 1.04004 22.749L1.11328 22.749C5.66895 22.749 6.06445 19.7754 8.4375 19.7754C10.7666 19.7754 11.3965 22.749 15.3955 22.749Z" fill="#a9a9a9"/>
 </g>
</svg>
