<?xml version="1.0" encoding="UTF-8"?>
<!--Generator: Apple Native CoreSVG 175.5-->
<!DOCTYPE svg
PUBLIC "-//W3C//DTD SVG 1.1//EN"
       "http://www.w3.org/Graphics/SVG/1.1/DTD/svg11.dtd">
<svg version="1.1" xmlns="http://www.w3.org/2000/svg" xmlns:xlink="http://www.w3.org/1999/xlink" width="29.5673" height="34.7194">
 <g>
  <rect height="34.7194" opacity="0" width="29.5673" x="0" y="0"/>
  <path d="M0.098592 11.8739C-0.194377 12.7088 0.201131 13.3973 0.816365 13.617C1.28512 13.7928 1.73922 13.5731 2.12008 13.2655C3.45308 12.284 4.7275 11.8446 6.25094 12.4012C7.77437 12.9432 8.38961 14.0711 8.65328 15.6385C8.72652 16.1512 8.9023 16.5614 9.34176 16.7225C9.81051 16.8983 10.206 16.6932 10.6015 16.3563C11.4804 15.6092 12.667 15.2284 13.7949 15.287L7.30562 33.0702C7.07125 33.7 7.40816 34.4178 8.05269 34.6522C8.66793 34.8719 9.40035 34.535 9.63472 33.9051L16.1093 16.1219C17.0029 16.8104 17.6474 17.8651 17.8378 19.0077C17.9404 19.4911 18.1015 19.9159 18.5556 20.077C19.0097 20.2381 19.4052 20.0184 19.8007 19.6961C21.0166 18.6708 22.1884 18.202 23.7119 18.744C25.2353 19.3153 25.9384 20.4579 26.3193 22.0985C26.4365 22.5672 26.6269 23.0213 27.0957 23.1825C27.7109 23.4022 28.4873 23.1385 28.7656 22.3036C30.7578 16.8397 29.3955 7.72837 20.5771 3.83188L21.3388 1.76645C21.5878 1.03403 21.3095 0.374852 20.6064 0.11118C19.9326-0.137843 19.2734 0.199071 19.0097 0.916844L18.2627 2.99692C9.00484 0.30161 2.09078 6.38071 0.098592 11.8739ZM3.52633 10.1747C6.01656 6.35141 10.7041 3.93442 15.9482 4.82798C13.5898 6.38071 11.3193 9.10532 9.8398 12.6209C9.25387 11.493 8.30172 10.7166 7.04195 10.2772C5.85543 9.85239 4.6982 9.80845 3.52633 10.1747ZM11.6123 13.3534C13.2822 9.38364 16.0947 6.5272 18.6435 5.50181C19.9619 7.93345 20.2841 11.9178 19.0097 16.0633C18.3066 14.8475 17.1201 13.8661 15.7871 13.368C14.4541 12.8846 12.916 12.8846 11.6123 13.3534ZM20.8261 16.62C21.9687 12.9725 21.9834 9.44223 21.1777 6.73227C25.748 9.42759 27.7841 14.2909 27.2275 18.8026C26.5683 17.7772 25.6455 17.0594 24.4882 16.62C23.2285 16.1659 21.998 16.1366 20.8261 16.62Z" fill="#a9a9a9"/>
 </g>
</svg>
