<svg width="50" height="50" viewBox="0 0 50 50" fill="none" xmlns="http://www.w3.org/2000/svg">
<rect width="50" height="50" rx="15" fill="white"/>
<path d="M13.75 35.8571V19.7971L24.0182 12.7768C24.7839 12.2533 25.7924 12.2533 26.558 12.7768L36.8263 19.7971V35.8571C36.8263 37.0998 35.8189 38.1071 34.5763 38.1071H32.4007C31.1774 38.1071 30.1782 37.1298 30.1512 35.9068L30.0349 30.6316C29.9899 28.5932 28.3246 26.9643 26.2858 26.9643H24.3559C22.2849 26.9643 20.6059 28.6432 20.6059 30.7143V35.8571C20.6059 37.0998 19.5986 38.1071 18.3559 38.1071H16C14.7574 38.1071 13.75 37.0998 13.75 35.8571Z" stroke="#A9A9A9" stroke-width="1.5"/>
<path d="M11 18L22.3142 10.0531C24.0627 8.82499 26.3985 8.84372 28.1271 10.0997L39 18" stroke="#A9A9A9" stroke-width="1.5" stroke-linecap="round"/>
</svg>
