<svg width="45" height="45" viewBox="0 0 45 45" fill="none" xmlns="http://www.w3.org/2000/svg">
<circle cx="22.5" cy="24.5" r="6.75" stroke="#A9A9A9" stroke-width="1.5"/>
<circle cx="22.5" cy="24.5" r="10.75" stroke="#A9A9A9" stroke-width="1.5"/>
<path d="M22.0665 22.5593C22.0704 22.7234 22.1173 22.8718 22.2072 23.0046C22.3009 23.1335 22.424 23.2566 22.5763 23.3738C22.7013 23.4714 22.8751 23.5867 23.0978 23.7195C23.3204 23.8523 23.5138 23.9675 23.6779 24.0652C23.8771 24.1863 24.0724 24.321 24.2638 24.4695C24.4552 24.614 24.6271 24.7781 24.7794 24.9617C24.9318 25.1453 25.0548 25.3523 25.1486 25.5828C25.2423 25.8132 25.2931 26.075 25.3009 26.3679V26.4148C25.3009 26.7273 25.2618 27.0066 25.1837 27.2527C25.0275 27.7175 24.7736 28.0632 24.422 28.2898C24.2423 28.407 24.0626 28.4968 23.8829 28.5593C23.6915 28.6257 23.4982 28.6726 23.3029 28.7C23.1115 28.7273 22.9298 28.7429 22.7579 28.7468H22.6993C22.3751 28.7468 22.0841 28.7136 21.8263 28.6472C21.5763 28.5808 21.3615 28.4929 21.1818 28.3835C21.0021 28.2703 20.8536 28.1414 20.7365 27.9968C20.6154 27.8523 20.5197 27.7019 20.4493 27.5457C20.379 27.3933 20.3282 27.241 20.297 27.0886C20.2657 26.9363 20.2501 26.7937 20.2501 26.6609C20.2501 26.3953 20.3302 26.196 20.4904 26.0632C20.6544 25.9304 20.8517 25.864 21.0822 25.864C21.3048 25.864 21.5099 25.9324 21.6974 26.0691C21.8888 26.2019 21.9884 26.3953 21.9962 26.6492C22.004 26.9421 22.0704 27.1433 22.1954 27.2527C22.3204 27.3582 22.5001 27.4109 22.7345 27.4109C22.9884 27.4031 23.1857 27.3386 23.3263 27.2175C23.4708 27.0964 23.5431 26.8796 23.5431 26.5671C23.5431 26.2976 23.463 26.0593 23.3029 25.8523C23.1466 25.6453 22.9474 25.4558 22.7052 25.2839C22.463 25.1082 22.2111 24.9382 21.9493 24.7742C21.6759 24.5984 21.4181 24.4148 21.1759 24.2234C20.9337 24.0281 20.7365 23.8074 20.5841 23.5613C20.4318 23.3152 20.3517 23.0281 20.3439 22.7V22.6062C20.3478 22.1882 20.4025 21.8406 20.5079 21.5632C20.6173 21.2859 20.7775 21.0652 20.9884 20.9011C21.1954 20.7371 21.4513 20.6218 21.756 20.5554C22.0607 20.4851 22.4103 20.45 22.8048 20.45H22.9572C23.3087 20.45 23.6134 20.489 23.8712 20.5671C24.1212 20.6453 24.3282 20.7449 24.4923 20.866C24.6603 20.9871 24.7931 21.1238 24.8907 21.2761C24.9845 21.4246 25.0548 21.575 25.1017 21.7273C25.1486 21.8757 25.1779 22.0144 25.1896 22.1433C25.2013 22.2722 25.2072 22.3757 25.2072 22.4539C25.2072 22.6843 25.1232 22.8718 24.9552 23.0164C24.7911 23.157 24.59 23.2273 24.3517 23.2273C24.172 23.2273 23.9962 23.1609 23.8243 23.0281C23.6525 22.8953 23.5665 22.7507 23.5665 22.5945C23.5665 22.2742 23.5079 22.0515 23.3907 21.9265C23.2775 21.8015 23.1095 21.739 22.8868 21.739C22.629 21.739 22.4279 21.7859 22.2833 21.8796C22.1388 21.9734 22.0665 22.2 22.0665 22.5593Z" fill="#A9A9A9"/>
<rect x="0.75" y="44.25" width="38.5" height="43.5" rx="14.25" transform="rotate(-90 0.75 44.25)" stroke="#A9A9A9" stroke-width="1.5"/>
<rect x="11.75" y="0.75" width="21.5" height="4.5" rx="2.25" stroke="#A9A9A9" stroke-width="1.5"/>
</svg>
