<svg width="50" height="50" viewBox="0 0 50 50" fill="none" xmlns="http://www.w3.org/2000/svg">
<rect width="50" height="50" rx="15" fill="white"/>
<path d="M28.5564 19.4455C28.9522 19.0358 29.0638 18.4287 28.8394 17.905L28.172 18.191L28.8394 17.905C28.4247 16.9375 28.6409 15.8149 29.3852 15.0706L32.5667 11.8891C34.1288 10.327 36.6615 10.327 38.2236 11.8891C39.7857 13.4512 39.7857 15.9838 38.2236 17.5459L35.31 20.4595C34.4278 21.3417 33.0802 21.5604 31.9644 21.0024C31.3888 20.7146 30.6931 20.8319 30.2437 21.2925L15.4703 36.4318C14.9748 36.9395 14.1489 36.9071 13.6947 36.3621C13.3036 35.8928 13.3289 35.2041 13.7535 34.7647L28.5564 19.4455Z" stroke="#A9A9A9" stroke-width="1.5"/>
<path d="M20.9224 19.3129L21.6118 19.6084L20.9224 19.313C20.6949 19.844 20.8135 20.46 21.222 20.8685L35.0468 34.6933C35.535 35.1815 35.535 35.9729 35.0468 36.4611C34.5587 36.9493 33.7672 36.9493 33.2791 36.4611L19.4543 22.6363C19.0457 22.2278 18.4297 22.1091 17.8987 22.3367L18.1941 23.0261L17.8987 22.3367C16.9349 22.7497 15.8168 22.5344 15.0754 21.793L9.41421 16.1318C9.21895 15.9365 9.21895 15.6199 9.41421 15.4247L12.5962 18.6067C13.182 19.1924 14.1317 19.1924 14.7175 18.6067C15.3033 18.0209 15.3033 17.0711 14.7175 16.4853L11.7123 13.4801C11.6147 13.3825 11.6147 13.2242 11.7123 13.1266C11.8099 13.0289 11.9682 13.0289 12.0659 13.1266L15.0711 16.1318C15.6569 16.7176 16.6066 16.7176 17.1924 16.1318C17.7782 15.546 17.7782 14.5962 17.1924 14.0105L14.0104 10.8285C14.2057 10.6332 14.5223 10.6332 14.7175 10.8285L20.3787 16.4897C21.1201 17.2311 21.3355 18.3492 20.9224 19.3129Z" fill="white" stroke="#A9A9A9" stroke-width="1.5"/>
</svg>
