<?xml version="1.0" encoding="UTF-8"?>
<!--Generator: Apple Native CoreSVG 175.5-->
<!DOCTYPE svg
PUBLIC "-//W3C//DTD SVG 1.1//EN"
       "http://www.w3.org/Graphics/SVG/1.1/DTD/svg11.dtd">
<svg version="1.1" xmlns="http://www.w3.org/2000/svg" xmlns:xlink="http://www.w3.org/1999/xlink" width="34.9219" height="30.542">
 <g>
  <rect height="30.542" opacity="0" width="34.9219" x="0" y="0"/>
  <path d="M3.36914 25.3418L31.5381 25.3418C33.6475 25.3418 34.9219 24.0674 34.9219 21.958L34.9219 4.39453C34.9219 2.28516 33.6475 1.02539 31.5381 1.02539L3.36914 1.02539C1.27441 1.02539 0 2.28516 0 4.39453L0 21.958C0 24.0674 1.27441 25.3418 3.36914 25.3418ZM2.98828 18.8818C2.54883 18.8818 2.3584 18.7207 2.3584 18.252L2.3584 4.43848C2.3584 3.7793 2.76855 3.38379 3.41309 3.38379L31.5088 3.38379C32.1533 3.38379 32.5635 3.7793 32.5635 4.43848L32.5635 18.252C32.5635 18.7207 32.3584 18.8818 31.9189 18.8818ZM12.832 28.8281L22.0898 28.8281L22.0898 25.1514L12.832 25.1514ZM12.7441 30.542L22.1777 30.542C22.8223 30.542 23.3496 30.0146 23.3496 29.3555C23.3496 28.6963 22.8223 28.1689 22.1777 28.1689L12.7441 28.1689C12.0996 28.1689 11.5576 28.6963 11.5576 29.3555C11.5576 30.0146 12.0996 30.542 12.7441 30.542ZM13.8281 15.9668C13.8281 16.5674 14.458 16.8018 14.9561 16.5088L22.8076 11.8945C23.291 11.6016 23.2764 10.957 22.793 10.6787L14.9561 6.06445C14.458 5.77148 13.8281 5.99121 13.8281 6.60645Z" fill="#a9a9a9"/>
 </g>
</svg>
