<?xml version="1.0" encoding="UTF-8"?>
<!--Generator: Apple Native CoreSVG 175.5-->
<!DOCTYPE svg
PUBLIC "-//W3C//DTD SVG 1.1//EN"
       "http://www.w3.org/Graphics/SVG/1.1/DTD/svg11.dtd">
<svg version="1.1" xmlns="http://www.w3.org/2000/svg" xmlns:xlink="http://www.w3.org/1999/xlink" width="34.6582" height="27.2314">
 <g>
  <rect height="27.2314" opacity="0" width="34.6582" x="0" y="0"/>
  <path d="M6.0498 8.36426C6.38672 6.76758 7.10449 4.67285 7.58789 3.82324C7.9834 3.13477 8.4082 2.82715 9.19922 2.72461C10.3125 2.57812 12.8027 2.47559 17.3291 2.47559C21.8701 2.47559 24.3604 2.54883 25.459 2.72461C26.25 2.8418 26.6602 3.13477 27.0703 3.82324C27.5684 4.6582 28.2422 6.76758 28.623 8.36426C28.7549 8.90625 28.5205 9.11133 27.9639 9.08203C25.5322 8.9209 22.6318 8.77441 17.3291 8.77441C12.041 8.77441 9.14062 8.9209 6.70898 9.08203C6.1377 9.11133 5.91797 8.90625 6.0498 8.36426ZM6.76758 19.1895C5.43457 19.1895 4.40918 18.1641 4.40918 16.8311C4.40918 15.4834 5.43457 14.4727 6.76758 14.4727C8.10059 14.4727 9.12598 15.4834 9.12598 16.8311C9.12598 18.1641 8.10059 19.1895 6.76758 19.1895ZM13.4619 18.6035C12.4512 18.6035 11.7627 17.915 11.7627 16.9043C11.7627 15.9082 12.4512 15.2197 13.4619 15.2197L21.2109 15.2197C22.207 15.2197 22.8955 15.9082 22.8955 16.9043C22.8955 17.915 22.207 18.6035 21.2109 18.6035ZM27.8906 19.1895C26.5576 19.1895 25.5469 18.1641 25.5469 16.8311C25.5469 15.4834 26.5576 14.4727 27.8906 14.4727C29.2383 14.4727 30.249 15.4834 30.249 16.8311C30.249 18.1641 29.2383 19.1895 27.8906 19.1895ZM17.3291 23.1445C22.251 23.1445 28.7988 22.8955 31.5674 22.5732C33.5596 22.3535 34.6582 21.2549 34.6582 19.3799L34.6582 16.8018C34.6582 14.3262 34.1602 12.9492 32.8125 11.1914L31.5674 9.59473C31.04 6.95801 30.0586 4.18945 29.5605 3.10547C28.7695 1.4502 27.2607 0.46875 25.3125 0.205078C24.3311 0.0732422 21.123 0 17.3291 0C13.5498 0 10.3418 0.0878906 9.36035 0.205078C7.41211 0.439453 5.88867 1.4502 5.1123 3.10547C4.59961 4.18945 3.63281 6.95801 3.09082 9.59473L1.86035 11.1914C0.498047 12.9492 0 14.3262 0 16.8018L0 19.3799C0 21.2549 1.11328 22.3535 3.09082 22.5732C5.87402 22.8955 12.4072 23.1445 17.3291 23.1445ZM1.94824 27.1729L3.66211 27.1729C4.76074 27.1729 5.61035 26.3232 5.61035 25.2393L5.61035 21.5918L0 18.9258L0 25.2393C0 26.3232 0.849609 27.1729 1.94824 27.1729ZM30.9961 27.1729L32.7246 27.1729C33.8232 27.1729 34.6582 26.3232 34.6582 25.2393L34.6582 18.9258L29.0625 21.5918L29.0625 25.2393C29.0625 26.3232 29.8975 27.1729 30.9961 27.1729Z" fill="#a9a9a9"/>
 </g>
</svg>
