<?xml version="1.0" encoding="UTF-8"?>
<!--Generator: Apple Native CoreSVG 175.5-->
<!DOCTYPE svg
PUBLIC "-//W3C//DTD SVG 1.1//EN"
       "http://www.w3.org/Graphics/SVG/1.1/DTD/svg11.dtd">
<svg version="1.1" xmlns="http://www.w3.org/2000/svg" xmlns:xlink="http://www.w3.org/1999/xlink" width="39.5801" height="26.9971">
 <g>
  <rect height="26.9971" opacity="0" width="39.5801" x="0" y="0"/>
  <path d="M0 22.4561C0 25.4883 1.53809 26.9971 4.59961 26.9971L18.7207 26.9971L18.7207 20.3613C15.2197 19.9365 12.8467 17.2559 12.8467 13.5059C12.8467 9.72656 15.2197 7.0459 18.7207 6.65039L18.7207 0.0292969L4.59961 0.0292969C1.53809 0.0292969 0 1.53809 0 4.57031L0 6.40137L5.1123 6.40137C7.0459 6.40137 8.17383 7.5293 8.17383 9.44824L8.17383 17.5635C8.17383 19.4824 7.0459 20.6104 5.1123 20.6104L0 20.6104ZM0 18.5449L5.08301 18.5449C5.72754 18.5449 6.1084 18.1641 6.1084 17.5049L6.1084 9.50684C6.1084 8.84766 5.72754 8.4668 5.08301 8.4668L0 8.4668ZM14.7949 13.4912C14.7949 16.04 16.3916 17.9443 18.7207 18.3545L18.7207 8.67188C16.3916 9.08203 14.7949 10.957 14.7949 13.4912ZM20.7861 26.9971L34.9951 26.9971C38.0566 26.9971 39.5801 25.4736 39.5801 22.4561L39.5801 20.6104L34.4824 20.6104C32.5342 20.6104 31.4209 19.4824 31.4209 17.5635L31.4209 9.44824C31.4209 7.5293 32.5342 6.40137 34.4824 6.40137L39.5801 6.40137L39.5801 4.57031C39.5801 1.55273 38.0566 0.0292969 34.9951 0.0292969L20.7861 0.0292969L20.7861 6.67969C24.2725 7.13379 26.6309 9.8291 26.6602 13.5059C26.7041 17.2559 24.3311 19.9219 20.7861 20.3613ZM20.7861 18.3545C23.1152 17.9443 24.6973 16.04 24.7119 13.4912C24.7266 10.957 23.1299 9.06738 20.7861 8.67188ZM33.4863 17.5049C33.4863 18.1641 33.8672 18.5449 34.4971 18.5449L39.5801 18.5449L39.5801 8.4668L34.4971 8.4668C33.8672 8.4668 33.4863 8.84766 33.4863 9.50684Z" fill="#a9a9a9"/>
 </g>
</svg>
