<svg width="50" height="50" viewBox="0 0 50 50" fill="none" xmlns="http://www.w3.org/2000/svg">
<rect width="50" height="50" rx="15" fill="url(#paint0_linear_319_692)"/>
<circle cx="24.6602" cy="26.6192" r="9.27213" transform="rotate(-0.571631 24.6602 26.6192)" stroke="white" stroke-width="1.5"/>
<path fill-rule="evenodd" clip-rule="evenodd" d="M28.4714 10.2785C29.7115 8.27984 31.5992 7.25471 34.2611 7.22815C38.2984 7.18787 41.5657 10.3298 41.6043 14.2002C41.6243 16.2097 40.9623 17.9799 39.6602 19.2445C39.5824 19.3201 39.5245 19.4085 39.4866 19.5031C39.2752 19.7137 39.2019 20.0397 39.3267 20.3306C40.1344 22.2121 40.5912 24.282 40.6129 26.46C40.7008 35.2705 33.6298 42.484 24.8193 42.5719C16.0088 42.6598 8.79529 35.5888 8.70738 26.7783C8.61948 17.9679 15.6905 10.7543 24.501 10.6664C25.4583 10.6569 26.3963 10.7318 27.3078 10.884C27.5867 10.9306 27.8554 10.8168 28.0195 10.6098C28.2007 10.5636 28.365 10.45 28.4714 10.2785ZM27.2772 9.36042C28.8198 6.96263 31.1827 5.75879 34.2461 5.72822C39.0707 5.68009 43.0569 9.44597 43.1042 14.1853C43.1269 16.4551 42.4009 18.5719 40.8754 20.1501C41.6536 22.0994 42.0906 24.2224 42.1128 26.445C42.209 36.0839 34.4731 43.9757 24.8343 44.0719C15.1954 44.168 7.30363 36.4322 7.20746 26.7933C7.11129 17.1545 14.8472 9.26266 24.486 9.16649C25.4348 9.15702 26.3672 9.22351 27.2772 9.36042Z" fill="white"/>
<path d="M38.8466 13.4179C38.8265 11.4052 37.0509 9.79123 34.8806 9.81288C33.1697 9.82995 31.7242 10.8585 31.1989 12.2793L32.0133 12.4548C34.0667 12.8971 35.833 14.1962 36.867 16.0245C37.0048 16.2683 37.321 16.3494 37.5363 16.1704C38.3496 15.4943 38.8575 14.5096 38.8466 13.4179Z" stroke="white" stroke-width="1.5" stroke-linejoin="round"/>
<path d="M23.829 23.9283C23.8367 24.1514 23.9041 24.3526 24.0314 24.532C24.164 24.706 24.3375 24.8716 24.5518 25.0289C24.7277 25.1599 24.9719 25.3142 25.2846 25.4917C25.5973 25.6693 25.8689 25.8233 26.0993 25.9538C26.3791 26.1157 26.6536 26.2963 26.9229 26.4955C27.1921 26.6894 27.4343 26.9101 27.6495 27.1577C27.8647 27.4052 28.0393 27.6851 28.1734 27.9972C28.3074 28.3093 28.3818 28.6646 28.3967 29.0629L28.3974 29.1266C28.4016 29.5516 28.3508 29.932 28.2451 30.2678C28.0332 30.9021 27.6834 31.3758 27.1956 31.6888C26.9463 31.8507 26.6966 31.9754 26.4466 32.0629C26.1802 32.1559 25.9109 32.2223 25.6385 32.2622C25.3717 32.3021 25.1183 32.3259 24.8783 32.3336L24.7965 32.3344C24.3438 32.3389 23.937 32.2978 23.5762 32.2111C23.2262 32.1243 22.925 32.0077 22.6726 31.8615C22.4202 31.7099 22.2112 31.5367 22.0456 31.3418C21.8746 31.1469 21.7389 30.9437 21.6386 30.7322C21.5384 30.526 21.4654 30.3195 21.4197 30.1127C21.374 29.906 21.3502 29.7123 21.3484 29.5317C21.3448 29.1704 21.4539 28.8984 21.6758 28.7155C21.903 28.5326 22.1776 28.4396 22.4994 28.4363C22.8103 28.4332 23.0975 28.5234 23.3612 28.7067C23.6302 28.8846 23.7719 29.1462 23.7863 29.4914C23.8012 29.8897 23.8966 30.1624 24.0726 30.3094C24.2486 30.4511 24.5002 30.5203 24.8275 30.5171C25.1819 30.5029 25.4565 30.4125 25.6512 30.2458C25.8513 30.0791 25.9493 29.7833 25.945 29.3583C25.9414 28.9917 25.8263 28.6688 25.5999 28.3895C25.3789 28.1101 25.0982 27.8552 24.7577 27.6248C24.4172 27.3892 24.0631 27.1616 23.6954 26.9421C23.3112 26.7068 22.9488 26.4608 22.608 26.2038C22.2672 25.9416 21.9888 25.6442 21.7727 25.3116C21.5567 24.979 21.441 24.5897 21.4256 24.1436L21.4243 24.0161C21.4241 23.4476 21.4957 22.974 21.6392 22.5954C21.7882 22.2166 22.0088 21.9143 22.3011 21.6882C22.588 21.4622 22.9437 21.3019 23.3682 21.2074C23.7927 21.1075 24.2803 21.0548 24.8312 21.0493L25.0439 21.0472C25.5348 21.0423 25.9607 21.0912 26.3218 21.1938C26.6719 21.2966 26.9623 21.4292 27.193 21.5916C27.4292 21.7539 27.6165 21.938 27.7549 22.1438C27.8879 22.3444 27.9881 22.5479 28.0556 22.7545C28.1231 22.9557 28.1658 23.1439 28.184 23.319C28.2021 23.4942 28.2117 23.6349 28.2127 23.7411C28.2158 24.0546 28.1011 24.3107 27.8685 24.5096C27.6414 24.7032 27.3614 24.8016 27.0287 24.8049C26.7778 24.8074 26.5315 24.7195 26.2897 24.5413C26.0479 24.3631 25.926 24.1677 25.9239 23.9552C25.9195 23.5196 25.8347 23.2176 25.6694 23.0492C25.5095 22.8808 25.2741 22.7982 24.9632 22.8013C24.6032 22.8049 24.323 22.8714 24.1225 23.0009C23.9219 23.1304 23.8241 23.4396 23.829 23.9283Z" fill="white"/>
<defs>
<linearGradient id="paint0_linear_319_692" x1="25" y1="0" x2="25" y2="50" gradientUnits="userSpaceOnUse">
<stop stop-color="#FFC7AD"/>
<stop offset="1" stop-color="#FF8C38"/>
</linearGradient>
</defs>
</svg>
