<?xml version="1.0" encoding="UTF-8"?>
<!--Generator: Apple Native CoreSVG 175.5-->
<!DOCTYPE svg
PUBLIC "-//W3C//DTD SVG 1.1//EN"
       "http://www.w3.org/Graphics/SVG/1.1/DTD/svg11.dtd">
<svg version="1.1" xmlns="http://www.w3.org/2000/svg" xmlns:xlink="http://www.w3.org/1999/xlink" width="33.6353" height="31.0986">
 <g>
  <rect height="31.0986" opacity="0" width="33.6353" x="0" y="0"/>
  <path d="M24.9023 6.38672C26.6455 6.38672 28.0664 4.96582 28.0664 3.17871C28.0664 1.4209 26.6455 0 24.9023 0C23.1152 0 21.6943 1.4209 21.6943 3.17871C21.6943 4.96582 23.1152 6.38672 24.9023 6.38672ZM17.4756 30.0732L20.4492 30.0732L20.4492 20.5664C20.4492 20.2734 20.3613 19.9365 20.1562 19.6729L16.9043 15.293L21.0352 11.1475C21.3135 10.8545 21.7236 10.8545 22.002 11.1475L25.9277 15.1025C26.1914 15.3955 26.6016 15.5127 26.9824 15.5127C27.3633 15.5127 27.7441 15.3662 28.0225 15.1025L32.417 10.708C32.7246 10.4004 32.8564 10.0195 32.8564 9.65332C32.8564 8.34961 31.2451 7.64648 30.293 8.59863L26.9824 11.9092L21.3867 6.35742C20.6689 5.6543 19.9512 5.25879 18.8086 5.25879L12.583 5.25879C12.041 5.25879 11.6602 5.40527 11.2646 5.78613L7.00195 10.0488C6.03516 11.0156 6.75293 12.6123 8.04199 12.6123C8.4082 12.6123 8.78906 12.4512 9.08203 12.1582L13.0225 8.23242L15.6299 8.23242C15.8496 8.23242 15.9375 8.4375 15.7617 8.59863L12.583 11.792C11.2646 13.1104 11.25 14.9707 12.583 16.3037L17.4756 21.1816ZM10.8252 16.333L8.75977 19.1016L1.47949 19.1016C0.673828 19.1016 0 19.7461 0 20.5811C0 21.4014 0.673828 22.0459 1.47949 22.0459L9.49219 22.0459C9.91699 22.0459 10.2979 21.8848 10.6348 21.5479L13.2422 18.9551L11.5869 17.3145C11.2793 16.9922 11.0303 16.6846 10.8252 16.333ZM31.2305 26.3232C31.2305 26.7773 31.5967 27.1436 32.0215 27.1436C32.4756 27.1436 32.8564 26.7773 32.8564 26.3232L32.8564 9.65332L31.2305 9.65332ZM0.966797 10.9863C0.512695 10.9863 0.146484 11.3525 0.146484 11.7773C0.146484 12.2314 0.512695 12.6123 0.966797 12.6123L8.04199 12.6123L8.04199 10.9863ZM29.707 31.0693C31.2012 31.0693 32.0947 30.7031 33.1348 30.2051C33.5742 30.0146 33.7354 29.5459 33.5742 29.1797C33.457 28.7695 32.9736 28.4912 32.4463 28.7549C31.6113 29.1797 30.9521 29.4434 29.707 29.4434L4.08691 29.4434C3.64746 29.4434 3.2666 29.7949 3.2666 30.2344C3.2666 30.6738 3.63281 31.0693 4.08691 31.0693Z" fill="#a9a9a9"/>
 </g>
</svg>
