<svg width="50" height="50" viewBox="0 0 50 50" fill="none" xmlns="http://www.w3.org/2000/svg">
<rect width="50" height="50" rx="15" fill="url(#paint0_linear_104_611)"/>
<path d="M39.0764 26.6363C39.0764 35.2574 32.0659 42.25 23.4132 42.25C14.7605 42.25 7.75 35.2574 7.75 26.6363C7.75 18.0153 14.7605 11.0227 23.4132 11.0227C32.0659 11.0227 39.0764 18.0153 39.0764 26.6363Z" stroke="white" stroke-width="1.5"/>
<ellipse cx="23.413" cy="26.6364" rx="2.18843" ry="2.18182" fill="white"/>
<path d="M31.4169 26.6363C31.4169 31.0399 27.8356 34.6136 23.4131 34.6136C18.9907 34.6136 15.4094 31.0399 15.4094 26.6363C15.4094 22.2327 18.9907 18.6591 23.4131 18.6591C27.8356 18.6591 31.4169 22.2327 31.4169 26.6363Z" stroke="white" stroke-width="1.5"/>
<path d="M24.5074 25.8649L36.3171 14.0909" stroke="white" stroke-width="1.5" stroke-linecap="round"/>
<path d="M39.4306 7.41294L39.7537 10.3125C39.7641 10.4053 39.8376 10.4786 39.9307 10.4889L42.839 10.811C43.0059 10.8295 43.0772 11.0323 42.9585 11.1507L39.8395 14.2603C39.7965 14.3032 39.7362 14.3243 39.6757 14.3176L36.4489 13.9601C36.3558 13.9498 36.2823 13.8765 36.2719 13.7837L35.9134 10.5666C35.9067 10.5063 35.9278 10.4463 35.9708 10.4034L39.0898 7.29379C39.2086 7.17538 39.412 7.24652 39.4306 7.41294Z" stroke="white" stroke-width="1.5" stroke-linecap="round"/>
<defs>
<linearGradient id="paint0_linear_104_611" x1="25.5556" y1="-14.4444" x2="25" y2="50" gradientUnits="userSpaceOnUse">
<stop stop-color="#C2FF98"/>
<stop offset="1" stop-color="#97E460"/>
</linearGradient>
</defs>
</svg>
