<svg width="30" height="30" viewBox="0 0 30 30" fill="none" xmlns="http://www.w3.org/2000/svg">
<circle cx="15" cy="15" r="15" fill="#F5F5F5"/>
<path d="M14.4699 20.216C13.8832 20.2053 13.3125 20.1573 12.7579 20.072C12.2032 19.976 11.7552 19.848 11.4139 19.688V18.328C11.7765 18.4987 12.2405 18.648 12.8059 18.776C13.3712 18.904 13.9259 18.9733 14.4699 18.984V15.752C13.9472 15.6027 13.4885 15.4427 13.0939 15.272C12.7099 15.0907 12.3952 14.888 12.1499 14.664C11.9045 14.44 11.7179 14.184 11.5899 13.896C11.4725 13.5973 11.4139 13.256 11.4139 12.872C11.4139 12.3493 11.5365 11.9013 11.7819 11.528C12.0379 11.1547 12.3952 10.8613 12.8539 10.648C13.3125 10.424 13.8512 10.296 14.4699 10.264V8.856H15.4939V10.248C16.0592 10.2587 16.5712 10.3227 17.0299 10.44C17.4992 10.5467 17.9259 10.68 18.3099 10.84L17.8779 12.024C17.5365 11.8853 17.1579 11.768 16.7419 11.672C16.3365 11.5653 15.9205 11.496 15.4939 11.464V14.68C16.1979 14.8827 16.7845 15.1013 17.2539 15.336C17.7232 15.56 18.0752 15.8427 18.3099 16.184C18.5552 16.5147 18.6779 16.9467 18.6779 17.48C18.6779 18.2267 18.4005 18.8347 17.8459 19.304C17.2912 19.7627 16.5072 20.0453 15.4939 20.152V21.928H14.4699V20.216ZM15.4939 18.904C16.1232 18.84 16.5819 18.696 16.8699 18.472C17.1579 18.2373 17.3019 17.9387 17.3019 17.576C17.3019 17.3093 17.2485 17.0907 17.1419 16.92C17.0352 16.7387 16.8485 16.584 16.5819 16.456C16.3259 16.328 15.9632 16.2053 15.4939 16.088V18.904ZM14.4699 11.496C14.0859 11.5173 13.7712 11.5867 13.5259 11.704C13.2805 11.8107 13.0939 11.9547 12.9659 12.136C12.8485 12.3173 12.7899 12.5253 12.7899 12.76C12.7899 13.0373 12.8379 13.2773 12.9339 13.48C13.0405 13.672 13.2165 13.8373 13.4619 13.976C13.7072 14.104 14.0432 14.2213 14.4699 14.328V11.496Z" fill="black"/>
</svg>
