<svg width="680" height="680" viewBox="0 0 680 680" fill="none" xmlns="http://www.w3.org/2000/svg">
<g filter="url(#filter0_d_3_11)">
<rect x="40" y="640" width="600" height="600" rx="150" transform="rotate(-90 40 640)" fill="url(#paint0_linear_3_11)"/>
</g>
<circle cx="340" cy="304" r="150" fill="#97D16D"/>
<circle cx="340" cy="304" r="100" fill="#D3FFC2"/>
<path d="M331.484 272.125C331.536 274.312 332.161 276.292 333.359 278.062C334.609 279.781 336.25 281.422 338.281 282.984C339.948 284.286 342.266 285.823 345.234 287.594C348.203 289.365 350.781 290.901 352.969 292.203C355.625 293.818 358.229 295.615 360.781 297.594C363.333 299.521 365.625 301.708 367.656 304.156C369.688 306.604 371.328 309.365 372.578 312.438C373.828 315.51 374.505 319 374.609 322.906V323.531C374.609 327.698 374.089 331.422 373.047 334.703C370.964 340.901 367.578 345.51 362.891 348.531C360.495 350.094 358.099 351.292 355.703 352.125C353.151 353.01 350.573 353.635 347.969 354C345.417 354.365 342.995 354.573 340.703 354.625H339.922C335.599 354.625 331.719 354.182 328.281 353.297C324.948 352.411 322.083 351.24 319.688 349.781C317.292 348.271 315.312 346.552 313.75 344.625C312.135 342.698 310.859 340.693 309.922 338.609C308.984 336.578 308.307 334.547 307.891 332.516C307.474 330.484 307.266 328.583 307.266 326.812C307.266 323.271 308.333 320.615 310.469 318.844C312.656 317.073 315.286 316.188 318.359 316.188C321.328 316.188 324.062 317.099 326.562 318.922C329.115 320.693 330.443 323.271 330.547 326.656C330.651 330.562 331.536 333.245 333.203 334.703C334.87 336.109 337.266 336.812 340.391 336.812C343.776 336.708 346.406 335.849 348.281 334.234C350.208 332.62 351.172 329.729 351.172 325.562C351.172 321.969 350.104 318.792 347.969 316.031C345.885 313.271 343.229 310.745 340 308.453C336.771 306.109 333.411 303.844 329.922 301.656C326.276 299.312 322.839 296.865 319.609 294.312C316.38 291.708 313.75 288.766 311.719 285.484C309.688 282.203 308.62 278.375 308.516 274V272.75C308.568 267.177 309.297 262.542 310.703 258.844C312.161 255.146 314.297 252.203 317.109 250.016C319.87 247.828 323.281 246.292 327.344 245.406C331.406 244.469 336.068 244 341.328 244H343.359C348.047 244 352.109 244.521 355.547 245.562C358.88 246.604 361.641 247.932 363.828 249.547C366.068 251.161 367.839 252.984 369.141 255.016C370.391 256.995 371.328 259 371.953 261.031C372.578 263.01 372.969 264.859 373.125 266.578C373.281 268.297 373.359 269.677 373.359 270.719C373.359 273.792 372.24 276.292 370 278.219C367.812 280.094 365.13 281.031 361.953 281.031C359.557 281.031 357.214 280.146 354.922 278.375C352.63 276.604 351.484 274.677 351.484 272.594C351.484 268.323 350.703 265.354 349.141 263.688C347.63 262.021 345.391 261.188 342.422 261.188C338.984 261.188 336.302 261.812 334.375 263.062C332.448 264.312 331.484 267.333 331.484 272.125Z" fill="#97D16D"/>
<path d="M190 640C107.157 640 40 572.843 40 490L40 340H124.329C152.223 340 179.564 347.778 203.282 362.46L263.855 399.958C313.623 430.767 376.766 429.812 425.58 397.513L474.861 364.905C499.41 348.661 528.196 340 557.633 340H640V490C640 572.843 572.843 640 490 640H190Z" fill="url(#paint1_linear_3_11)"/>
<defs>
<filter id="filter0_d_3_11" x="0" y="0" width="680" height="680" filterUnits="userSpaceOnUse" color-interpolation-filters="sRGB">
<feFlood flood-opacity="0" result="BackgroundImageFix"/>
<feColorMatrix in="SourceAlpha" type="matrix" values="0 0 0 0 0 0 0 0 0 0 0 0 0 0 0 0 0 0 127 0" result="hardAlpha"/>
<feOffset/>
<feGaussianBlur stdDeviation="20"/>
<feComposite in2="hardAlpha" operator="out"/>
<feColorMatrix type="matrix" values="0 0 0 0 0 0 0 0 0 0 0 0 0 0 0 0 0 0 0.2 0"/>
<feBlend mode="normal" in2="BackgroundImageFix" result="effect1_dropShadow_3_11"/>
<feBlend mode="normal" in="SourceGraphic" in2="effect1_dropShadow_3_11" result="shape"/>
</filter>
<linearGradient id="paint0_linear_3_11" x1="40" y1="940" x2="640" y2="940" gradientUnits="userSpaceOnUse">
<stop stop-color="#DADADA"/>
<stop offset="1" stop-color="white"/>
</linearGradient>
<linearGradient id="paint1_linear_3_11" x1="340" y1="640" x2="340" y2="340" gradientUnits="userSpaceOnUse">
<stop stop-color="#EBEBEB"/>
<stop offset="1" stop-color="white"/>
</linearGradient>
</defs>
</svg>
