<svg width="59" height="59" viewBox="0 0 59 59" fill="none" xmlns="http://www.w3.org/2000/svg">
<circle cx="29.5" cy="29.5" r="11.75" stroke="#A9A9A9" stroke-width="1.5"/>
<path d="M25.7403 10.3152C27.1874 7.0562 31.8126 7.0562 33.2597 10.3152C34.4733 13.0483 37.6165 14.3503 40.4072 13.2758C43.7349 11.9946 47.0054 15.2651 45.7242 18.5928C44.6497 21.3835 45.9517 24.5267 48.6848 25.7403C51.9438 27.1874 51.9438 31.8126 48.6848 33.2597C45.9517 34.4733 44.6497 37.6165 45.7242 40.4072C47.0054 43.7349 43.7349 47.0054 40.4072 45.7242C37.6165 44.6497 34.4733 45.9517 33.2597 48.6848C31.8126 51.9438 27.1874 51.9438 25.7403 48.6848C24.5267 45.9517 21.3835 44.6497 18.5928 45.7242C15.2651 47.0054 11.9946 43.7349 13.2758 40.4072C14.3503 37.6165 13.0483 34.4733 10.3152 33.2597C7.0562 31.8126 7.0562 27.1874 10.3152 25.7403C13.0483 24.5267 14.3503 21.3836 13.2758 18.5928C11.9946 15.2651 15.2651 11.9946 18.5928 13.2758C21.3835 14.3503 24.5267 13.0483 25.7403 10.3152Z" stroke="#A9A9A9" stroke-width="1.5" stroke-linejoin="round"/>
</svg>
