<?xml version="1.0" encoding="UTF-8"?>
<!--Generator: Apple Native CoreSVG 175.5-->
<!DOCTYPE svg
PUBLIC "-//W3C//DTD SVG 1.1//EN"
       "http://www.w3.org/Graphics/SVG/1.1/DTD/svg11.dtd">
<svg version="1.1" xmlns="http://www.w3.org/2000/svg" xmlns:xlink="http://www.w3.org/1999/xlink" width="28.1689" height="33.208">
 <g>
  <rect height="33.208" opacity="0" width="28.1689" x="0" y="0"/>
  <path d="M4.98047 32.4316C5.66895 32.4316 5.94727 32.0508 6.1084 31.4209L7.33887 26.7627L20.918 26.7627L22.1484 31.4209C22.3242 32.0508 22.6465 32.4316 23.2764 32.4316C24.0381 32.4316 24.4189 31.9922 24.4189 31.3477C24.4189 31.2012 24.4043 31.0547 24.3604 30.8936L22.0166 22.1191L22.8662 22.1191C23.8184 22.1191 24.5361 21.5186 24.5361 20.6836C24.5361 19.7754 23.8916 19.1895 22.9395 19.1895L6.21094 19.1895C5.1123 19.1895 4.48242 18.6182 4.48242 17.5635L4.48242 13.5498L6.73828 13.5498L6.73828 14.6338C6.73828 16.3037 7.55859 17.0801 9.27246 17.0801L19.0869 17.0801C20.7861 17.0801 21.6064 16.3037 21.6064 14.6338L21.6064 13.5498L26.8799 13.5498C27.6709 13.5498 28.1689 13.1104 28.1689 12.4219C28.1689 11.7188 27.6855 11.2793 26.9385 11.2793L1.15723 11.2793C0.454102 11.2793 0 11.7334 0 12.4219C0 13.1104 0.483398 13.5498 1.23047 13.5498L2.21191 13.5498L2.21191 19.043C2.21191 20.9766 3.39844 22.1191 5.33203 22.1191L6.24023 22.1191L3.91113 30.8936C3.86719 31.04 3.83789 31.1719 3.83789 31.3623C3.83789 31.9629 4.1748 32.4316 4.98047 32.4316ZM7.9541 24.4775L8.56934 22.1191L19.6875 22.1191L20.3027 24.4775ZM9.21387 9.09668L19.1455 9.09668C20.8594 9.09668 21.6943 8.30566 21.6943 6.62109L21.6943 2.47559C21.6943 0.791016 20.8594 0 19.1455 0L9.21387 0C7.48535 0 6.66504 0.791016 6.66504 2.47559L6.66504 6.62109C6.66504 8.30566 7.48535 9.09668 9.21387 9.09668Z" fill="#a9a9a9"/>
 </g>
</svg>
