<?xml version="1.0" encoding="UTF-8"?>
<!--Generator: Apple Native CoreSVG 175.5-->
<!DOCTYPE svg
PUBLIC "-//W3C//DTD SVG 1.1//EN"
       "http://www.w3.org/Graphics/SVG/1.1/DTD/svg11.dtd">
<svg version="1.1" xmlns="http://www.w3.org/2000/svg" xmlns:xlink="http://www.w3.org/1999/xlink" width="32.5342" height="27.2314">
 <g>
  <rect height="27.2314" opacity="0" width="32.5342" x="0" y="0"/>
  <path d="M0 24.7705C0 25.9717 0.791016 26.4404 1.65527 26.4404C2.15332 26.4404 2.57812 26.1475 3.13477 25.8105C4.74609 24.7119 6.73828 24.0381 8.77441 24.0527C10.8838 24.0674 12.9785 24.8438 14.6191 26.4258C15.2637 27.0117 15.7324 27.2021 16.2744 27.2021C16.8018 27.2021 17.2852 27.0117 17.915 26.4258C19.5557 24.8584 21.6504 24.0674 23.7744 24.0527C25.8105 24.0381 27.7881 24.7119 29.3994 25.8105C29.9561 26.1475 30.3809 26.4404 30.8936 26.4404C31.7432 26.4404 32.5342 25.9717 32.5342 24.7705L32.5342 4.89258C32.5342 4.64355 32.5195 4.43848 32.3584 4.18945C31.0547 1.91895 27.7441 0 23.7158 0C20.5225 0 17.7539 1.27441 16.2744 3.07617C14.7949 1.27441 12.0117 0 8.83301 0C4.79004 0 1.47949 1.91895 0.175781 4.18945C0.0292969 4.43848 0 4.64355 0 4.89258ZM2.3584 23.5254L2.3584 5.22949C3.54492 3.51562 6.12305 2.3584 8.83301 2.3584C11.6162 2.3584 14.0479 3.53027 15.0879 5.31738L15.0879 23.7744C13.5938 22.5879 11.2646 21.6943 8.83301 21.6943C6.28418 21.6943 3.91113 22.4121 2.3584 23.5254ZM17.4463 23.7744L17.4463 5.31738C18.4863 3.53027 20.9326 2.3584 23.7158 2.3584C26.4111 2.3584 28.9893 3.51562 30.1758 5.22949L30.1758 23.5254C28.623 22.4121 26.25 21.6943 23.7158 21.6943C21.2695 21.6943 18.9404 22.5879 17.4463 23.7744Z" fill="#a9a9a9"/>
 </g>
</svg>
