<svg width="45" height="45" viewBox="0 0 45 45" fill="none" xmlns="http://www.w3.org/2000/svg">
<rect x="0.75" y="44.25" width="43.5" height="43.5" rx="14.25" transform="rotate(-90 0.75 44.25)" stroke="#A9A9A9" stroke-width="1.5"/>
<path d="M12.7388 24.8999C11.6991 23.1954 11.1001 21.1926 11.1001 19.0499C11.1001 12.8367 16.1369 7.79993 22.3501 7.79993C28.5633 7.79993 33.6001 12.8367 33.6001 19.0499C33.6001 21.3196 32.9279 23.4324 31.7718 25.1999" stroke="#A9A9A9" stroke-width="1.5"/>
<circle cx="22.35" cy="19.05" r="6.75" stroke="#A9A9A9" stroke-width="1.5"/>
<path d="M21.9165 17.1094C21.9204 17.2734 21.9673 17.4219 22.0571 17.5547C22.1509 17.6836 22.2739 17.8066 22.4263 17.9238C22.5513 18.0215 22.7251 18.1367 22.9478 18.2695C23.1704 18.4023 23.3638 18.5176 23.5278 18.6152C23.7271 18.7363 23.9224 18.8711 24.1138 19.0195C24.3052 19.1641 24.4771 19.3281 24.6294 19.5117C24.7817 19.6953 24.9048 19.9023 24.9985 20.1328C25.0923 20.3633 25.1431 20.625 25.1509 20.918V20.9648C25.1509 21.2773 25.1118 21.5566 25.0337 21.8027C24.8774 22.2676 24.6235 22.6133 24.272 22.8398C24.0923 22.957 23.9126 23.0469 23.7329 23.1094C23.5415 23.1758 23.3481 23.2227 23.1528 23.25C22.9614 23.2773 22.7798 23.293 22.6079 23.2969H22.5493C22.2251 23.2969 21.9341 23.2637 21.6763 23.1973C21.4263 23.1309 21.2114 23.043 21.0317 22.9336C20.8521 22.8203 20.7036 22.6914 20.5864 22.5469C20.4653 22.4023 20.3696 22.252 20.2993 22.0957C20.229 21.9434 20.1782 21.791 20.147 21.6387C20.1157 21.4863 20.1001 21.3438 20.1001 21.2109C20.1001 20.9453 20.1802 20.7461 20.3403 20.6133C20.5044 20.4805 20.7017 20.4141 20.9321 20.4141C21.1548 20.4141 21.3599 20.4824 21.5474 20.6191C21.7388 20.752 21.8384 20.9453 21.8462 21.1992C21.854 21.4922 21.9204 21.6934 22.0454 21.8027C22.1704 21.9082 22.3501 21.9609 22.5845 21.9609C22.8384 21.9531 23.0356 21.8887 23.1763 21.7676C23.3208 21.6465 23.3931 21.4297 23.3931 21.1172C23.3931 20.8477 23.313 20.6094 23.1528 20.4023C22.9966 20.1953 22.7974 20.0059 22.5552 19.834C22.313 19.6582 22.061 19.4883 21.7993 19.3242C21.5259 19.1484 21.2681 18.9648 21.0259 18.7734C20.7837 18.5781 20.5864 18.3574 20.4341 18.1113C20.2817 17.8652 20.2017 17.5781 20.1938 17.25V17.1563C20.1978 16.7383 20.2524 16.3906 20.3579 16.1133C20.4673 15.8359 20.6274 15.6152 20.8384 15.4512C21.0454 15.2871 21.3013 15.1719 21.606 15.1055C21.9106 15.0352 22.2603 15 22.6548 15H22.8071C23.1587 15 23.4634 15.0391 23.7212 15.1172C23.9712 15.1953 24.1782 15.2949 24.3423 15.416C24.5103 15.5371 24.6431 15.6738 24.7407 15.8262C24.8345 15.9746 24.9048 16.125 24.9517 16.2773C24.9985 16.4258 25.0278 16.5645 25.0396 16.6934C25.0513 16.8223 25.0571 16.9258 25.0571 17.0039C25.0571 17.2344 24.9731 17.4219 24.8052 17.5664C24.6411 17.707 24.4399 17.7773 24.2017 17.7773C24.022 17.7773 23.8462 17.7109 23.6743 17.5781C23.5024 17.4453 23.4165 17.3008 23.4165 17.1445C23.4165 16.8242 23.3579 16.6016 23.2407 16.4766C23.1274 16.3516 22.9595 16.2891 22.7368 16.2891C22.479 16.2891 22.2778 16.3359 22.1333 16.4297C21.9888 16.5234 21.9165 16.75 21.9165 17.1094Z" fill="#A9A9A9"/>
<path d="M15 44.25C7.12994 44.25 0.75 37.8701 0.75 30L0.75 23.25H4.68081C7.70798 23.25 10.6752 24.0941 13.2491 25.6875L13.8309 26.0477C19.3749 29.4797 26.4089 29.3733 31.8467 25.7753C34.3359 24.1282 37.2547 23.25 40.2395 23.25H44.25V30C44.25 37.8701 37.8701 44.25 30 44.25H15Z" stroke="#A9A9A9" stroke-width="1.5"/>
</svg>
