<?xml version="1.0" encoding="UTF-8"?>
<!--Generator: Apple Native CoreSVG 175.5-->
<!DOCTYPE svg
PUBLIC "-//W3C//DTD SVG 1.1//EN"
       "http://www.w3.org/Graphics/SVG/1.1/DTD/svg11.dtd">
<svg version="1.1" xmlns="http://www.w3.org/2000/svg" xmlns:xlink="http://www.w3.org/1999/xlink" width="26.9678" height="26.9971">
 <g>
  <rect height="26.9971" opacity="0" width="26.9678" x="0" y="0"/>
  <path d="M4.59961 26.9971L22.3682 26.9971C25.4443 26.9971 26.9678 25.4736 26.9678 22.4561L26.9678 4.57031C26.9678 1.55273 25.4443 0.0292969 22.3682 0.0292969L4.59961 0.0292969C1.53809 0.0292969 0 1.53809 0 4.57031L0 22.4561C0 25.4883 1.53809 26.9971 4.59961 26.9971ZM13.4912 22.1191C13.0811 22.1191 12.7734 21.8262 12.7734 21.4014L12.7734 20.3174C10.752 20.127 9.06738 19.0137 8.64258 17.2705C8.59863 17.124 8.56934 16.9629 8.56934 16.8018C8.56934 16.2744 8.93555 15.9082 9.44824 15.9082C9.90234 15.9082 10.2246 16.1426 10.3857 16.6699C10.6348 17.666 11.4258 18.4277 12.7734 18.6182L12.7734 14.165L12.6709 14.1357C10.1514 13.5352 8.8623 12.3926 8.8623 10.4736C8.8623 8.4082 10.4883 6.97266 12.7734 6.72363L12.7734 5.68359C12.7734 5.25879 13.0811 4.96582 13.4912 4.96582C13.9014 4.96582 14.2236 5.25879 14.2236 5.68359L14.2236 6.72363C16.1572 6.94336 17.6953 8.07129 18.0908 9.69727C18.1201 9.8584 18.1641 10.0195 18.1641 10.166C18.1641 10.6934 17.7832 11.0596 17.2705 11.0596C16.7871 11.0596 16.4941 10.7666 16.3477 10.3125C16.04 9.30176 15.293 8.65723 14.2236 8.4668L14.2236 12.6709L14.4141 12.7148C17.0361 13.1836 18.3691 14.4287 18.3691 16.4795C18.3691 18.7646 16.5527 20.127 14.2236 20.3467L14.2236 21.4014C14.2236 21.8262 13.9014 22.1191 13.4912 22.1191ZM12.7734 12.29L12.7734 8.4668C11.499 8.68652 10.7373 9.46289 10.7373 10.3711C10.7373 11.2646 11.3379 11.8652 12.6709 12.2607ZM14.2236 14.5166L14.2236 18.6182C15.7617 18.4424 16.5088 17.6367 16.5088 16.582C16.5088 15.6299 15.9961 15 14.5312 14.6045Z" fill="#ffffff"/>
 </g>
</svg>
