<?xml version="1.0" encoding="UTF-8"?>
<!--Generator: Apple Native CoreSVG 175.5-->
<!DOCTYPE svg
PUBLIC "-//W3C//DTD SVG 1.1//EN"
       "http://www.w3.org/Graphics/SVG/1.1/DTD/svg11.dtd">
<svg version="1.1" xmlns="http://www.w3.org/2000/svg" xmlns:xlink="http://www.w3.org/1999/xlink" width="26.9678" height="26.9971">
 <g>
  <rect height="26.9971" opacity="0" width="26.9678" x="0" y="0"/>
  <path d="M4.59961 26.9971L22.3682 26.9971C25.4443 26.9971 26.9678 25.4736 26.9678 22.4561L26.9678 4.57031C26.9678 1.55273 25.4443 0.0292969 22.3682 0.0292969L4.59961 0.0292969C1.53809 0.0292969 0 1.53809 0 4.57031L0 22.4561C0 25.4883 1.53809 26.9971 4.59961 26.9971ZM4.62891 24.6387C3.16406 24.6387 2.3584 23.8623 2.3584 22.3389L2.3584 4.6875C2.3584 3.16406 3.16406 2.3877 4.62891 2.3877L22.3389 2.3877C23.7891 2.3877 24.6094 3.16406 24.6094 4.6875L24.6094 22.3389C24.6094 23.8623 23.7891 24.6387 22.3389 24.6387ZM13.4912 21.8555C13.8867 21.8555 14.1943 21.5771 14.1943 21.167L14.1943 20.1416C16.4648 19.9219 18.2227 18.6035 18.2227 16.3916C18.2227 14.3994 16.9336 13.1982 14.3848 12.7441L14.1943 12.7002L14.1943 8.61328C15.2344 8.80371 15.9668 9.43359 16.2598 10.415C16.4062 10.8545 16.6846 11.1328 17.1533 11.1328C17.6514 11.1328 18.0176 10.7812 18.0176 10.2686C18.0176 10.1221 17.9736 9.97559 17.9443 9.81445C17.5635 8.23242 16.0693 7.14844 14.1943 6.92871L14.1943 5.91797C14.1943 5.50781 13.8867 5.22949 13.4912 5.22949C13.0957 5.22949 12.8027 5.50781 12.8027 5.91797L12.8027 6.92871C10.5762 7.17773 9.00879 8.56934 9.00879 10.5615C9.00879 12.4219 10.2539 13.5352 12.7002 14.1064L12.8027 14.1357L12.8027 18.4717C11.4844 18.2812 10.708 17.5488 10.4736 16.5674C10.3125 16.0693 10.0049 15.835 9.56543 15.835C9.06738 15.835 8.71582 16.1865 8.71582 16.6992C8.71582 16.8604 8.74512 17.0068 8.78906 17.1533C9.19922 18.8379 10.8398 19.9219 12.8027 20.1123L12.8027 21.167C12.8027 21.5771 13.0957 21.8555 13.4912 21.8555ZM12.8027 12.334L12.7002 12.3047C11.3818 11.9238 10.8105 11.3379 10.8105 10.4736C10.8105 9.58008 11.5576 8.83301 12.8027 8.61328ZM14.1943 14.4873L14.502 14.5605C15.9229 14.9561 16.4209 15.5566 16.4209 16.4941C16.4209 17.5195 15.6885 18.2959 14.1943 18.4717Z" fill="#ffffff"/>
 </g>
</svg>
