<?xml version="1.0" encoding="UTF-8"?>
<!--Generator: Apple Native CoreSVG 175.5-->
<!DOCTYPE svg
PUBLIC "-//W3C//DTD SVG 1.1//EN"
       "http://www.w3.org/Graphics/SVG/1.1/DTD/svg11.dtd">
<svg version="1.1" xmlns="http://www.w3.org/2000/svg" xmlns:xlink="http://www.w3.org/1999/xlink" width="33.9111" height="28.4033">
 <g>
  <rect height="28.4033" opacity="0" width="33.9111" x="0" y="0"/>
  <path d="M4.52637 28.3887L29.3848 28.3887C32.417 28.3887 33.9111 26.9238 33.9111 23.9209L33.9111 9.66797C33.9111 6.66504 32.417 5.2002 29.3848 5.2002L4.52637 5.2002C1.50879 5.2002 0 6.66504 0 9.66797L0 23.9209C0 26.9238 1.50879 28.3887 4.52637 28.3887ZM4.55566 26.0449C3.12012 26.0449 2.3584 25.3125 2.3584 23.8037L2.3584 9.78516C2.3584 8.29102 3.12012 7.54395 4.55566 7.54395L29.3555 7.54395C30.791 7.54395 31.5527 8.29102 31.5527 9.78516L31.5527 23.8037C31.5527 25.3125 30.791 26.0449 29.3555 26.0449ZM9.52148 6.47461L11.792 6.47461L11.792 3.88184C11.792 2.76855 12.4512 2.13867 13.5938 2.13867L20.3174 2.13867C21.46 2.13867 22.1045 2.76855 22.1045 3.88184L22.1045 6.44531L24.375 6.44531L24.375 4.04297C24.375 1.28906 22.9248 0 20.2734 0L13.623 0C11.1182 0 9.52148 1.28906 9.52148 4.04297Z" fill="#ffffff"/>
 </g>
</svg>
