<?xml version="1.0" encoding="UTF-8"?>
<!--Generator: Apple Native CoreSVG 175.5-->
<!DOCTYPE svg
PUBLIC "-//W3C//DTD SVG 1.1//EN"
       "http://www.w3.org/Graphics/SVG/1.1/DTD/svg11.dtd">
<svg version="1.1" xmlns="http://www.w3.org/2000/svg" xmlns:xlink="http://www.w3.org/1999/xlink" width="32.7266" height="29.8975">
 <g>
  <rect height="29.8975" opacity="0" width="32.7266" x="0" y="0"/>
  <path d="M17.7705 22.207C20.8906 22.207 23.1612 20.4639 23.1612 18.0322C23.1612 15.9814 22.0332 14.8828 19.2354 14.209L17.1553 13.6963C15.5147 13.2861 14.8115 12.7148 14.8115 11.7334C14.8115 10.5029 15.9541 9.65332 17.6533 9.65332C19.1914 9.65332 20.1289 10.3125 20.6416 11.7188C20.876 12.2314 21.2715 12.4658 21.6817 12.4658C22.4434 12.4658 22.8828 11.792 22.6192 10.9131C22.209 9.36035 20.4512 7.71973 17.6533 7.71973C14.6797 7.71973 12.5557 9.43359 12.5557 11.8213C12.5557 13.8281 13.8447 15.0586 16.5254 15.6885L18.6201 16.1865C20.2608 16.5674 20.876 17.124 20.876 18.1934C20.876 19.4531 19.6602 20.2734 17.7705 20.2734C16.0567 20.2734 15.0166 19.6289 14.4893 18.2373C14.2696 17.7393 13.874 17.5049 13.4639 17.5049C12.7168 17.5049 12.3213 18.1055 12.4824 18.9844C12.834 20.7861 14.9434 22.207 17.7705 22.207ZM16.9063 23.6426C16.9063 24.126 17.3018 24.5361 17.7852 24.5361C18.2686 24.5361 18.6787 24.126 18.6787 23.6426L18.6787 6.25488C18.6787 5.77148 18.2686 5.36133 17.7852 5.36133C17.3018 5.36133 16.9063 5.77148 16.9063 6.25488ZM17.7852 29.8828C25.9444 29.8828 32.7266 23.1006 32.7266 14.9414C32.7266 6.76758 25.9444 0 17.7852 0C9.61135 0 2.84377 6.75293 2.84377 14.9268L5.33401 14.9268C5.33401 8.0127 10.8711 2.50488 17.7852 2.50488C24.6992 2.50488 30.2364 8.02734 30.2364 14.9414C30.2364 21.8555 24.6992 27.4219 17.7852 27.3926C13.6104 27.3779 9.94827 25.3564 7.70705 22.2363C7.25295 21.6357 6.56448 21.4453 5.94924 21.8115C5.3633 22.1777 5.20217 22.9834 5.70022 23.6279C8.48342 27.3633 12.8487 29.8828 17.7852 29.8828ZM1.04202 12.1143C-0.012672 12.1143-0.276344 12.832 0.294945 13.6523L3.5762 18.3105C4.05959 18.9844 4.76272 18.9697 5.23147 18.3105L8.51272 13.6377C9.06936 12.832 8.80569 12.1143 7.76565 12.1143Z" fill="#ffffff"/>
 </g>
</svg>
