<?xml version="1.0" encoding="UTF-8"?>
<!--Generator: Apple Native CoreSVG 175.5-->
<!DOCTYPE svg
PUBLIC "-//W3C//DTD SVG 1.1//EN"
       "http://www.w3.org/Graphics/SVG/1.1/DTD/svg11.dtd">
<svg version="1.1" xmlns="http://www.w3.org/2000/svg" xmlns:xlink="http://www.w3.org/1999/xlink" width="25.6201" height="35.6396">
 <g>
  <rect height="35.6396" opacity="0" width="25.6201" x="0" y="0"/>
  <path d="M6.15234 11.0596C7.91016 11.0596 9.33105 9.63867 9.33105 7.85156C9.33105 6.09375 7.91016 4.67285 6.15234 4.67285C4.37988 4.67285 2.94434 6.09375 2.94434 7.85156C2.94434 9.63867 4.37988 11.0596 6.15234 11.0596ZM14.1357 26.3965L18.6768 20.1562L21.5479 25.4004C22.5146 29.8975 22.6318 33.3398 22.6318 33.8672C22.6318 34.7754 23.3057 35.4492 24.126 35.4492C24.9756 35.4492 25.6201 34.7754 25.6201 33.9111C25.6201 33.7646 25.5469 29.8389 24.4775 24.5654L24.4189 24.3018C23.1885 18.252 19.3359 7.06055 9.38965 0.454102C8.8916 0.146484 8.45215 0 7.93945 0L1.49414 0C0.673828 0 0 0.673828 0 1.49414C0 2.3584 0.673828 3.03223 1.49414 3.03223L7.82227 3.03223C9.38965 4.11621 10.752 5.28809 11.9971 6.54785C12.1729 6.70898 12.1875 6.97266 12.0703 7.16309L7.00195 15.8203C6.38672 16.9043 7.13379 18.0908 8.30566 18.0908L15.2197 18.0908L11.5869 24.7705L11.4404 25.0342L6.97266 33.208C6.5625 33.9404 6.82617 34.8779 7.55859 35.2588C8.24707 35.625 9.18457 35.4639 9.62402 34.6582ZM10.9131 15.0879L12.041 13.1689C12.2168 12.832 12.5684 12.9053 12.7148 13.125L14.0332 15.0879Z" fill="#a9a9a9"/>
 </g>
</svg>
