<?xml version="1.0" encoding="UTF-8"?>
<!--Generator: Apple Native CoreSVG 175.5-->
<!DOCTYPE svg
PUBLIC "-//W3C//DTD SVG 1.1//EN"
       "http://www.w3.org/Graphics/SVG/1.1/DTD/svg11.dtd">
<svg version="1.1" xmlns="http://www.w3.org/2000/svg" xmlns:xlink="http://www.w3.org/1999/xlink" width="18.4424" height="33.1787">
 <g>
  <rect height="33.1787" opacity="0" width="18.4424" x="0" y="0"/>
  <path d="M9.30176 29.6484C14.2529 29.6484 18.4424 27.0703 18.4424 22.3682C18.4424 18.75 16.1279 16.5967 10.957 15.3516L8.17383 14.6924C4.90723 13.916 3.39844 12.5537 3.39844 10.415C3.39844 8.11523 5.58105 6.1377 9.28711 6.1377C12.3193 6.1377 14.3994 7.55859 15.2051 10.1807C15.4395 10.9424 15.9375 11.3379 16.6699 11.3379C17.5342 11.3379 18.0176 10.7812 18.0176 9.93164C18.0176 9.69727 17.9883 9.44824 17.915 9.18457C17.0361 5.80078 13.6084 3.54492 9.28711 3.54492C4.18945 3.54492 0.541992 6.41602 0.541992 10.5908C0.541992 14.0479 2.82715 16.2158 7.73438 17.4023L10.5176 18.0615C14.165 18.9404 15.5859 20.2002 15.5859 22.5732C15.5859 25.4004 13.2715 27.0557 9.33105 27.0557C5.81543 27.0557 3.51562 25.5762 2.8125 22.8369C2.56348 22.0605 2.08008 21.665 1.34766 21.665C0.498047 21.665 0 22.2363 0 23.1006C0 23.3203 0.0292969 23.5693 0.102539 23.833C1.02539 27.5098 4.90723 29.6484 9.30176 29.6484ZM9.22852 33.1787C9.84375 33.1787 10.3418 32.6807 10.3418 32.0654L10.3418 1.21582C10.3418 0.600586 9.84375 0.117188 9.22852 0.117188C8.61328 0.117188 8.12988 0.600586 8.12988 1.21582L8.12988 32.0654C8.12988 32.6807 8.61328 33.1787 9.22852 33.1787Z" fill="#ffffff"/>
 </g>
</svg>
