<?xml version="1.0" encoding="UTF-8"?>
<!--Generator: Apple Native CoreSVG 175.5-->
<!DOCTYPE svg
PUBLIC "-//W3C//DTD SVG 1.1//EN"
       "http://www.w3.org/Graphics/SVG/1.1/DTD/svg11.dtd">
<svg version="1.1" xmlns="http://www.w3.org/2000/svg" xmlns:xlink="http://www.w3.org/1999/xlink" width="29.8828" height="29.8975">
 <g>
  <rect height="29.8975" opacity="0" width="29.8828" x="0" y="0"/>
  <path d="M14.9414 29.8828C23.1152 29.8828 29.8828 23.1006 29.8828 14.9414C29.8828 6.76758 23.1006 0 14.9268 0C6.76758 0 0 6.76758 0 14.9414C0 23.1006 6.78223 29.8828 14.9414 29.8828ZM14.9414 27.3926C8.02734 27.3926 2.50488 21.8555 2.50488 14.9414C2.50488 8.02734 8.0127 2.49023 14.9268 2.49023C21.8408 2.49023 27.3926 8.02734 27.3926 14.9414C27.3926 21.8555 21.8555 27.3926 14.9414 27.3926ZM10.7959 20.8301C10.7959 21.5039 11.2646 21.9727 11.9531 21.9727L12.5684 21.9727L12.5684 23.1299C12.5684 23.5547 12.8613 23.8477 13.2715 23.8477C13.6816 23.8477 13.9746 23.5547 13.9746 23.1299L13.9746 21.9727L14.9268 21.9727L14.9268 23.1299C14.9268 23.5547 15.2344 23.8477 15.6299 23.8477C16.04 23.8477 16.3477 23.5547 16.3477 23.1299L16.3477 21.9287C18.7793 21.665 20.2002 20.2588 20.2002 18.1055C20.2002 16.4502 19.2188 15.2197 17.71 14.7656C18.7939 14.2383 19.541 13.0811 19.541 11.8359C19.541 10.0195 18.2959 8.70117 16.3477 8.4082L16.3477 7.22168C16.3477 6.79688 16.04 6.50391 15.6299 6.50391C15.2344 6.50391 14.9268 6.79688 14.9268 7.22168L14.9268 8.34961L13.9746 8.34961L13.9746 7.22168C13.9746 6.79688 13.6816 6.50391 13.2715 6.50391C12.8613 6.50391 12.5684 6.79688 12.5684 7.22168L12.5684 8.34961L11.9531 8.34961C11.2793 8.34961 10.7959 8.81836 10.7959 9.50684ZM12.6709 20.2588L12.6709 15.8057L15.1465 15.8057C17.2412 15.8057 18.3252 16.5527 18.3252 18.0322C18.3252 19.4824 17.2852 20.2295 15.3076 20.2441ZM12.6709 14.0918L12.6709 10.0488L15.1758 10.0488C16.7578 10.0488 17.666 10.7373 17.666 11.9824C17.666 13.3594 16.6406 14.1211 14.7656 14.1064Z" fill="#ffffff"/>
 </g>
</svg>
