<svg width="50" height="50" viewBox="0 0 50 50" fill="none" xmlns="http://www.w3.org/2000/svg">
<rect width="50" height="50" rx="15" fill="white"/>
<path d="M9.825 22.5C9.825 19.9181 11.9181 17.825 14.5 17.825H36.5C39.0819 17.825 41.175 19.9181 41.175 22.5V27.2536C41.175 28.8606 40.734 30.4367 39.9 31.8103C38.3511 34.3614 34.6489 34.3614 33.1 31.8103L31.7059 29.5141L31.7052 29.513L30.9117 28.2014C28.4506 24.1334 22.5494 24.1334 20.0883 28.2014L19.2948 29.513L19.2941 29.5141L17.9 31.8103C16.3511 34.3614 12.6489 34.3614 11.1 31.8103C10.266 30.4367 9.825 28.8606 9.825 27.2536V22.5Z" stroke="#A9A9A9" stroke-width="1.65"/>
<circle cx="15.3" cy="23.1" r="1.1" fill="#A9A9A9"/>
<circle cx="35.1" cy="23.1" r="1.1" fill="#A9A9A9"/>
<circle cx="15.3" cy="27.5" r="1.1" fill="#A9A9A9"/>
<circle cx="35.1" cy="27.5" r="1.1" fill="#A9A9A9"/>
<circle cx="17.4999" cy="25.3" r="1.1" fill="#A9A9A9"/>
<circle cx="37.2999" cy="25.3" r="1.1" fill="#A9A9A9"/>
<circle cx="13.1" cy="25.3" r="1.1" fill="#A9A9A9"/>
<circle cx="32.8999" cy="25.3" r="1.1" fill="#A9A9A9"/>
</svg>
