<?xml version="1.0" encoding="UTF-8"?>
<!--Generator: Apple Native CoreSVG 175.5-->
<!DOCTYPE svg
PUBLIC "-//W3C//DTD SVG 1.1//EN"
       "http://www.w3.org/Graphics/SVG/1.1/DTD/svg11.dtd">
<svg version="1.1" xmlns="http://www.w3.org/2000/svg" xmlns:xlink="http://www.w3.org/1999/xlink" width="44.0314" height="33.0908">
 <g>
  <rect height="33.0908" opacity="0" width="44.0314" x="0" y="0"/>
  <path d="M9.84431 6.31348C11.6021 6.31348 13.0084 4.92188 13.0084 3.16406C13.0084 1.40625 11.6021 0 9.84431 0C8.0865 0 6.68025 1.40625 6.68025 3.16406C6.68025 4.92188 8.0865 6.31348 9.84431 6.31348ZM4.7906 32.666C5.47907 32.666 5.94782 32.2852 6.19685 31.377C6.69489 29.5752 8.17439 23.4375 8.67243 21.958C9.00935 20.9033 9.24372 20.4932 9.84431 20.4932C10.4449 20.4932 10.6793 20.9033 11.0162 21.958C11.5142 23.4375 12.9937 29.5752 13.4918 31.377C13.7408 32.2852 14.2095 32.666 14.898 32.666C15.8355 32.666 16.4068 31.8164 16.1431 30.8936C16.0406 30.498 13.9166 21.6211 13.609 19.79C13.3599 18.1787 13.3013 14.9268 13.3013 13.3887C13.3013 13.1543 13.565 13.0664 13.7115 13.2715L15.3668 15.5859C15.5426 14.6924 16.3775 13.7549 17.5933 13.7256L15.3228 10.415C14.1217 8.65723 12.6275 7.85156 9.84431 7.85156C7.06111 7.85156 5.56697 8.64258 4.36579 10.415L0.571848 15.9961C0.425364 16.2158 0.264231 16.4355 0.147043 16.6553C-0.160574 17.2119 0.00055895 18.0176 0.762278 18.4131C1.33357 18.7354 2.03669 18.6475 2.4615 18.1494C2.857 17.6807 4.87849 14.8242 5.97712 13.2715C6.10896 13.0811 6.38728 13.1543 6.38728 13.4033C6.38728 14.9414 6.31404 18.1787 6.06501 19.79C5.77204 21.6211 3.64802 30.498 3.54548 30.8936C3.28181 31.8164 3.8531 32.666 4.7906 32.666ZM22.0172 16.4355C23.3062 16.4355 24.3756 15.3809 24.3756 14.0918C24.3756 12.8027 23.3062 11.748 22.0172 11.748C20.7281 11.748 19.6734 12.8027 19.6734 14.0918C19.6734 15.3809 20.7281 16.4355 22.0172 16.4355ZM18.9117 32.666C19.4683 32.666 19.9224 32.3438 20.1129 31.6113C20.4205 30.5127 21.314 26.7334 21.607 25.8105C21.8121 25.21 21.856 25.166 22.0172 25.166C22.1783 25.166 22.2076 25.21 22.4127 25.8105C22.7056 26.7334 23.5992 30.5127 23.9215 31.6113C24.0972 32.3438 24.566 32.666 25.1226 32.666C25.9576 32.666 26.441 31.8896 26.2359 31.1279C26.1627 30.8789 24.8883 25.4443 24.6832 24.3018C24.5367 23.3936 24.4927 21.5625 24.4927 20.8301C24.4927 20.4053 24.6392 20.127 24.8736 19.834C25.9283 18.5156 27.2613 17.0068 27.4224 16.7578C27.774 16.2451 27.6422 15.6445 27.2467 15.2344C26.7926 14.7217 26.0308 14.7363 25.6353 15.1465L24.0826 16.8018C23.4381 17.4902 22.8961 17.8125 22.0172 17.8125C21.1383 17.8125 20.5963 17.4902 19.9517 16.8018L18.399 15.1465C18.0035 14.7363 17.2271 14.7217 16.7877 15.2344C16.3775 15.6445 16.2603 16.2451 16.5972 16.7578C16.7584 17.0068 18.106 18.5156 19.1607 19.834C19.3951 20.127 19.5269 20.4053 19.5269 20.8301C19.5269 21.5625 19.4976 23.3936 19.3511 24.3018C19.1461 25.4443 17.8717 30.8789 17.7838 31.1279C17.5933 31.8896 18.0767 32.666 18.9117 32.666ZM34.19 6.31348C35.9478 6.31348 37.3394 4.92188 37.3394 3.16406C37.3394 1.40625 35.9478 0 34.19 0C32.4322 0 31.0259 1.40625 31.0259 3.16406C31.0259 4.92188 32.4322 6.31348 34.19 6.31348ZM29.1363 32.666C29.8248 32.666 30.2789 32.2852 30.5426 31.377C31.0259 29.5752 32.5201 23.4375 33.0181 21.958C33.3404 20.9033 33.5894 20.4932 34.19 20.4932C34.7759 20.4932 35.025 20.9033 35.3619 21.958C35.8453 23.4375 37.3394 29.5752 37.8375 31.377C38.0865 32.2852 38.5552 32.666 39.2437 32.666C40.1812 32.666 40.7525 31.8164 40.4888 30.8936C40.3717 30.498 38.2476 21.6211 37.9547 19.79C37.7056 18.1787 37.647 14.9414 37.647 13.4033C37.647 13.1543 37.9254 13.0811 38.0426 13.2715C39.1558 14.8242 41.1627 17.6807 41.5582 18.1494C41.9976 18.6475 42.6861 18.7354 43.272 18.4131C44.0191 18.0176 44.1949 17.2119 43.8873 16.6553C43.7554 16.4355 43.609 16.2158 43.4478 15.9961L39.6685 10.415C38.4527 8.64258 36.9732 7.85156 34.19 7.85156C31.4068 7.85156 29.9127 8.65723 28.7115 10.415L26.4263 13.7256C27.6568 13.7549 28.4771 14.6924 28.6676 15.5859L30.3228 13.2715C30.4693 13.0664 30.733 13.1543 30.733 13.3887C30.733 14.9268 30.6597 18.1787 30.4107 19.79C30.1177 21.6211 27.9937 30.498 27.8912 30.8936C27.6129 31.8164 28.1988 32.666 29.1363 32.666Z" fill="#a9a9a9"/>
 </g>
</svg>
