<?xml version="1.0" encoding="UTF-8"?>
<!--Generator: Apple Native CoreSVG 175.5-->
<!DOCTYPE svg
PUBLIC "-//W3C//DTD SVG 1.1//EN"
       "http://www.w3.org/Graphics/SVG/1.1/DTD/svg11.dtd">
<svg version="1.1" xmlns="http://www.w3.org/2000/svg" xmlns:xlink="http://www.w3.org/1999/xlink" width="28.1396" height="32.3584">
 <g>
  <rect height="32.3584" opacity="0" width="28.1396" x="0" y="0"/>
  <path d="M2.09473 26.9824C2.09473 29.4287 3.53027 30.7031 5.97656 30.7031L12.8613 30.7031L12.8613 17.5488L2.09473 17.5488ZM15.2637 30.7031L22.1631 30.7031C24.5947 30.7031 26.0449 29.4287 26.0449 26.9824L26.0449 17.5488L15.2637 17.5488ZM0 13.7988C0 15.3662 0.878906 15.9814 2.46094 15.9814L12.8613 15.9814L12.8613 8.05664L10.5762 8.05664C8.27637 8.05664 6.92871 6.60645 6.92871 4.99512C6.92871 3.38379 8.10059 2.44629 9.71191 2.44629C11.4551 2.44629 12.8613 3.76465 12.8613 5.93262L12.8613 8.05664L15.2637 8.05664L15.2637 5.93262C15.2637 3.76465 16.6699 2.44629 18.4131 2.44629C20.0244 2.44629 21.1963 3.38379 21.1963 4.99512C21.1963 6.60645 19.8633 8.05664 17.5488 8.05664L15.2637 8.05664L15.2637 15.9814L25.6787 15.9814C27.2607 15.9814 28.1396 15.3662 28.1396 13.7988L28.1396 10.2393C28.1396 8.67188 27.2607 8.05664 25.6787 8.05664L22.2803 8.05664C23.1299 7.25098 23.6426 6.15234 23.6426 4.86328C23.6426 2.02148 21.4014 0 18.5596 0C16.5088 0 14.8096 1.12793 14.0625 3.09082C13.3154 1.12793 11.6309 0 9.56543 0C6.73828 0 4.48242 2.02148 4.48242 4.86328C4.48242 6.15234 4.99512 7.25098 5.85938 8.05664L2.46094 8.05664C0.952148 8.05664 0 8.67188 0 10.2393Z" fill="#a9a9a9"/>
 </g>
</svg>
