<svg width="50" height="50" viewBox="0 0 50 50" fill="none" xmlns="http://www.w3.org/2000/svg">
<rect width="50" height="50" rx="15" fill="url(#paint0_linear_104_603)"/>
<ellipse cx="13.2796" cy="22.4546" rx="2.27961" ry="2.36364" fill="white"/>
<ellipse cx="13.2796" cy="29.5454" rx="2.27961" ry="2.36364" fill="white"/>
<ellipse cx="13.2796" cy="36.6363" rx="2.27961" ry="2.36364" fill="white"/>
<ellipse cx="37.2155" cy="22.4546" rx="2.27961" ry="2.36364" fill="white"/>
<ellipse cx="29.2369" cy="22.4546" rx="2.27961" ry="2.36364" fill="white"/>
<ellipse cx="21.2583" cy="22.4546" rx="2.27961" ry="2.36364" fill="white"/>
<ellipse cx="21.2583" cy="29.5454" rx="2.27961" ry="2.36364" fill="white"/>
<ellipse cx="21.2583" cy="36.6363" rx="2.27961" ry="2.36364" fill="white"/>
<line x1="3.75" y1="13.25" x2="46.25" y2="13.25" stroke="white" stroke-width="1.5" stroke-linecap="round"/>
<path d="M39.5455 33.8C39.5455 37.8489 36.3844 41.1 32.5227 41.1C28.6611 41.1 25.5 37.8489 25.5 33.8C25.5 29.7511 28.6611 26.5 32.5227 26.5C36.3844 26.5 39.5455 29.7511 39.5455 33.8Z" stroke="white"/>
<path d="M31.8187 32.2752C31.8226 32.4397 31.8692 32.5885 31.9584 32.7217C32.0515 32.851 32.1736 32.9744 32.3249 33.0919C32.449 33.1898 32.6216 33.3054 32.8427 33.4386C33.0638 33.5717 33.2558 33.6873 33.4187 33.7852C33.6165 33.9067 33.8104 34.0418 34.0005 34.1906C34.1906 34.3356 34.3612 34.5001 34.5125 34.6842C34.6638 34.8683 34.7859 35.0759 34.879 35.307C34.9721 35.5381 35.0225 35.8006 35.0303 36.0944V36.1414C35.0303 36.4548 34.9915 36.7348 34.9139 36.9816C34.7588 37.4477 34.5067 37.7944 34.1576 38.0216C33.9792 38.1391 33.8007 38.2292 33.6223 38.2919C33.4323 38.3585 33.2403 38.4055 33.0463 38.4329C32.8563 38.4603 32.6759 38.476 32.5053 38.4799H32.4471C32.1251 38.4799 31.8362 38.4466 31.5802 38.38C31.332 38.3134 31.1186 38.2253 30.9402 38.1156C30.7618 38.002 30.6144 37.8728 30.498 37.7278C30.3778 37.5829 30.2828 37.4321 30.213 37.2754C30.1431 37.1226 30.0927 36.9699 30.0617 36.8171C30.0307 36.6643 30.0151 36.5213 30.0151 36.3882C30.0151 36.1218 30.0946 35.922 30.2537 35.7888C30.4166 35.6557 30.6125 35.5891 30.8413 35.5891C31.0624 35.5891 31.266 35.6576 31.4522 35.7947C31.6422 35.9279 31.7412 36.1218 31.7489 36.3764C31.7567 36.6702 31.8226 36.8719 31.9467 36.9816C32.0708 37.0874 32.2493 37.1403 32.482 37.1403C32.7341 37.1324 32.93 37.0678 33.0696 36.9464C33.2131 36.8249 33.2849 36.6075 33.2849 36.2941C33.2849 36.0239 33.2054 35.7849 33.0463 35.5773C32.8912 35.3697 32.6934 35.1797 32.4529 35.0074C32.2124 34.8311 31.9622 34.6607 31.7024 34.4962C31.4309 34.3199 31.1749 34.1358 30.9344 33.9439C30.6939 33.748 30.498 33.5267 30.3468 33.2799C30.1955 33.0331 30.116 32.7452 30.1082 32.4162V32.3222C30.1121 31.903 30.1664 31.5544 30.2711 31.2763C30.3797 30.9982 30.5388 30.7769 30.7482 30.6123C30.9538 30.4478 31.2078 30.3323 31.5104 30.2657C31.8129 30.1952 32.1601 30.1599 32.5518 30.1599H32.7031C33.0522 30.1599 33.3547 30.1991 33.6107 30.2774C33.8589 30.3558 34.0645 30.4557 34.2274 30.5771C34.3942 30.6985 34.5261 30.8356 34.623 30.9884C34.7161 31.1372 34.7859 31.288 34.8325 31.4408C34.879 31.5897 34.9081 31.7287 34.9197 31.858C34.9314 31.9873 34.9372 32.0911 34.9372 32.1694C34.9372 32.4005 34.8538 32.5885 34.687 32.7335C34.5241 32.8745 34.3244 32.945 34.0878 32.945C33.9093 32.945 33.7348 32.8784 33.5641 32.7452C33.3935 32.612 33.3081 32.4671 33.3081 32.3104C33.3081 31.9892 33.25 31.7659 33.1336 31.6406C33.0211 31.5152 32.8543 31.4526 32.6333 31.4526C32.3773 31.4526 32.1775 31.4996 32.034 31.5936C31.8905 31.6876 31.8187 31.9148 31.8187 32.2752Z" fill="white"/>
<defs>
<linearGradient id="paint0_linear_104_603" x1="25" y1="0" x2="25" y2="50" gradientUnits="userSpaceOnUse">
<stop stop-color="#FFB2C6"/>
<stop offset="1" stop-color="#E6399B"/>
</linearGradient>
</defs>
</svg>
