<?xml version="1.0" encoding="UTF-8"?>
<!--Generator: Apple Native CoreSVG 175.5-->
<!DOCTYPE svg
PUBLIC "-//W3C//DTD SVG 1.1//EN"
       "http://www.w3.org/Graphics/SVG/1.1/DTD/svg11.dtd">
<svg version="1.1" xmlns="http://www.w3.org/2000/svg" xmlns:xlink="http://www.w3.org/1999/xlink" width="44.0167" height="15.6299">
 <g>
  <rect height="15.6299" opacity="0" width="44.0167" x="0" y="0"/>
  <path d="M5.87215 6.38672C7.64461 6.38672 9.06551 4.96582 9.06551 3.19336C9.06551 1.43555 7.64461 0 5.87215 0C4.11434 0 2.69344 1.43555 2.69344 3.19336C2.69344 4.96582 4.11434 6.38672 5.87215 6.38672ZM15.4522 15.2197L19.6417 15.2197C23.1134 15.2197 24.0948 13.2422 23.8018 10.9717L22.835 3.28125L30.3497 3.28125C31.1993 3.28125 31.8585 2.60742 31.8585 1.75781C31.8585 0.922852 31.1993 0.263672 30.3497 0.263672L20.9747 0.263672C20.1104 0.263672 19.4513 0.864258 19.4513 1.88965L19.4513 9.65332L16.9464 9.65332C15.6134 9.65332 14.4854 9.16992 13.8409 8.14453C13.6944 7.91016 13.6944 7.55859 13.9727 7.23633L17.7374 2.76855C18.6163 1.74316 17.9132 0.263672 16.6388 0.263672L11.3507 0.263672C10.5157 0.263672 9.84188 0.922852 9.84188 1.75781C9.84188 2.62207 10.4864 3.28125 11.3507 3.28125L13.4893 3.28125L11.2921 5.87402C9.72469 7.73438 8.33309 9.02344 5.98934 10.0635L3.70418 11.0889L4.42196 8.55469C4.65633 7.71973 4.11434 6.89941 3.33797 6.72363C2.51766 6.51855 1.69735 7.0166 1.49227 7.79297L0.0713716 13.3447C-0.324136 14.8389 0.994223 15.6006 2.29793 15.0293L7.02938 12.9346C7.51278 12.7441 7.7911 12.7588 8.15731 13.0518C9.68075 14.3408 12.1124 15.2197 15.4522 15.2197ZM31.6241 11.8213L42.5079 11.8213C43.3429 11.8213 44.0167 11.1475 44.0167 10.2979C44.0167 9.46289 43.3429 8.78906 42.5079 8.78906L31.4776 8.78906C31.3604 8.78906 31.2139 8.78906 31.0528 8.80371L25.0177 9.30176L25.2227 10.7666C25.3253 11.6309 25.3106 12.4219 25.1348 13.125Z" fill="#a9a9a9"/>
 </g>
</svg>
