<svg width="50" height="50" viewBox="0 0 50 50" fill="none" xmlns="http://www.w3.org/2000/svg">
<rect width="50" height="50" rx="15" fill="url(#paint0_linear_91_375)"/>
<line y1="26.25" x2="50" y2="26.25" stroke="white" stroke-width="1.5"/>
<path fill-rule="evenodd" clip-rule="evenodd" d="M14 18.5C14 12.701 18.701 8 24.5 8C30.299 8 35 12.701 35 18.5C35 21.6097 33.6481 24.4037 31.5 26.3264L17.3138 26.1557C15.2741 24.2403 14 21.5189 14 18.5ZM23.6569 16.6949C23.535 16.5028 23.4713 16.2881 23.466 16.0508C23.466 15.5311 23.5641 15.2034 23.7604 15.0678C23.9566 14.9322 24.2297 14.8644 24.5797 14.8644C24.882 14.8644 25.11 14.9548 25.2638 15.1356C25.4229 15.3164 25.5025 15.6384 25.5025 16.1017C25.5025 16.3277 25.6192 16.5367 25.8525 16.7288C26.0858 16.9209 26.3245 17.0169 26.5684 17.0169C26.8919 17.0169 27.1651 16.9153 27.3878 16.7119C27.6158 16.5028 27.7299 16.2316 27.7299 15.8983C27.7299 15.7853 27.7219 15.6356 27.706 15.4492C27.6901 15.2627 27.6503 15.0621 27.5867 14.8475C27.523 14.6271 27.4276 14.4096 27.3003 14.1949C27.1677 13.9746 26.9874 13.7768 26.7594 13.6017C26.5366 13.4266 26.2556 13.2825 25.9161 13.1695C25.5661 13.0565 25.1525 13 24.6752 13H24.4683C23.9327 13 23.4581 13.0508 23.0444 13.1525C22.6308 13.2486 22.2834 13.4153 22.0023 13.6525C21.7159 13.8898 21.4985 14.209 21.35 14.6102C21.2068 15.0113 21.1326 15.5141 21.1273 16.1186V16.2542C21.1379 16.7288 21.2466 17.1441 21.4534 17.5C21.6603 17.8559 21.9281 18.1751 22.2569 18.4576C22.5857 18.7345 22.9357 19 23.3069 19.2542C23.6622 19.4915 24.0043 19.7373 24.3331 19.9915C24.6619 20.2401 24.9324 20.5141 25.1445 20.8136C25.3619 21.113 25.4707 21.4576 25.4707 21.8475C25.4707 22.2994 25.3726 22.613 25.1763 22.7881C24.9854 22.9633 24.7176 23.0565 24.3729 23.0678C24.0547 23.0678 23.8107 22.9915 23.641 22.839C23.4713 22.6808 23.3812 22.3898 23.3706 21.9661C23.36 21.5989 23.2247 21.3192 22.9649 21.1271C22.7103 20.9294 22.4319 20.8305 22.1296 20.8305C21.8167 20.8305 21.5489 20.9266 21.3262 21.1186C21.1087 21.3107 21 21.5989 21 21.9831C21 22.1751 21.0212 22.3814 21.0636 22.6017C21.1061 22.822 21.175 23.0424 21.2705 23.2627C21.3659 23.4887 21.4959 23.7062 21.6603 23.9153C21.8194 24.1243 22.0209 24.3107 22.2648 24.4746C22.5088 24.6328 22.8005 24.7599 23.1399 24.8559C23.4899 24.952 23.885 25 24.3252 25H24.4047C24.6381 24.9944 24.8847 24.9718 25.1445 24.9322C25.4097 24.8927 25.6722 24.8249 25.9321 24.7288C26.176 24.6384 26.42 24.5085 26.6639 24.339C27.1412 24.0113 27.4859 23.5113 27.698 22.839C27.8041 22.4831 27.8571 22.0791 27.8571 21.6271V21.5593C27.8465 21.1356 27.7776 20.7571 27.6503 20.4237C27.523 20.0904 27.356 19.791 27.1492 19.5254C26.9423 19.2599 26.709 19.0226 26.4491 18.8136C26.1893 18.5989 25.9241 18.404 25.6536 18.2288C25.4309 18.0876 25.1684 17.9209 24.8661 17.7288C24.5638 17.5367 24.3278 17.3701 24.1581 17.2288C23.9513 17.0593 23.7842 16.8814 23.6569 16.6949Z" fill="white"/>
<defs>
<linearGradient id="paint0_linear_91_375" x1="25" y1="0" x2="25" y2="50" gradientUnits="userSpaceOnUse">
<stop stop-color="#B8F98B"/>
<stop offset="1" stop-color="#99E562"/>
</linearGradient>
</defs>
</svg>
