<svg width="170" height="170" viewBox="0 0 170 170" fill="none" xmlns="http://www.w3.org/2000/svg">
<g filter="url(#filter0_d_187_1022)">
<rect x="10" y="160" width="150" height="150" rx="50" transform="rotate(-90 10 160)" fill="url(#paint0_linear_187_1022)"/>
</g>
<circle cx="84.5" cy="73.5" r="37.5" fill="white"/>
<circle cx="84.5" cy="73.5" r="25" fill="#BBFF8B"/>
<path d="M82.3711 65.5312C82.3841 66.0781 82.5404 66.5729 82.8398 67.0156C83.1523 67.4453 83.5625 67.8555 84.0703 68.2461C84.487 68.5716 85.0664 68.9557 85.8086 69.3984C86.5508 69.8411 87.1953 70.2253 87.7422 70.5508C88.4062 70.9544 89.0573 71.4036 89.6953 71.8984C90.3333 72.3802 90.9062 72.9271 91.4141 73.5391C91.9219 74.151 92.332 74.8411 92.6445 75.6094C92.957 76.3776 93.1263 77.25 93.1523 78.2266V78.3828C93.1523 79.4245 93.0221 80.3555 92.7617 81.1758C92.2409 82.7253 91.3945 83.8776 90.2227 84.6328C89.6237 85.0234 89.0247 85.3229 88.4258 85.5312C87.7878 85.7526 87.1432 85.9088 86.4922 86C85.8542 86.0911 85.2487 86.1432 84.6758 86.1562H84.4805C83.3997 86.1562 82.4297 86.0456 81.5703 85.8242C80.737 85.6029 80.0208 85.3099 79.4219 84.9453C78.8229 84.5677 78.3281 84.138 77.9375 83.6562C77.5339 83.1745 77.2148 82.6732 76.9805 82.1523C76.7461 81.6445 76.5768 81.1367 76.4727 80.6289C76.3685 80.1211 76.3164 79.6458 76.3164 79.2031C76.3164 78.3177 76.5833 77.6536 77.1172 77.2109C77.6641 76.7682 78.3216 76.5469 79.0898 76.5469C79.832 76.5469 80.5156 76.7747 81.1406 77.2305C81.7786 77.6732 82.1107 78.3177 82.1367 79.1641C82.1628 80.1406 82.3841 80.8112 82.8008 81.1758C83.2174 81.5273 83.8164 81.7031 84.5977 81.7031C85.444 81.6771 86.1016 81.4622 86.5703 81.0586C87.0521 80.6549 87.293 79.9323 87.293 78.8906C87.293 77.9922 87.026 77.1979 86.4922 76.5078C85.9714 75.8177 85.3073 75.1862 84.5 74.6133C83.6927 74.0273 82.8529 73.4609 81.9805 72.9141C81.069 72.3281 80.2096 71.7161 79.4023 71.0781C78.5951 70.4271 77.9375 69.6914 77.4297 68.8711C76.9219 68.0508 76.6549 67.0937 76.6289 66V65.6875C76.6419 64.2943 76.8242 63.1354 77.1758 62.2109C77.5404 61.2865 78.0742 60.5508 78.7773 60.0039C79.4674 59.457 80.3203 59.0729 81.3359 58.8516C82.3516 58.6172 83.5169 58.5 84.832 58.5H85.3398C86.5117 58.5 87.5273 58.6302 88.3867 58.8906C89.2201 59.151 89.9102 59.4831 90.457 59.8867C91.0169 60.2904 91.4596 60.7461 91.7852 61.2539C92.0977 61.7487 92.332 62.25 92.4883 62.7578C92.6445 63.2526 92.7422 63.7148 92.7812 64.1445C92.8203 64.5742 92.8398 64.9193 92.8398 65.1797C92.8398 65.9479 92.5599 66.5729 92 67.0547C91.4531 67.5234 90.7826 67.7578 89.9883 67.7578C89.3893 67.7578 88.8034 67.5365 88.2305 67.0937C87.6576 66.651 87.3711 66.1693 87.3711 65.6484C87.3711 64.5807 87.1758 63.8385 86.7852 63.4219C86.4076 63.0052 85.8477 62.7969 85.1055 62.7969C84.2461 62.7969 83.5755 62.9531 83.0938 63.2656C82.612 63.5781 82.3711 64.3333 82.3711 65.5312Z" fill="white"/>
<path d="M60 160C32.3858 160 10 137.614 10 110L10 85H25.6027C36.1582 85 46.5045 87.9433 55.4795 93.4992L57.419 94.6998C75.0696 105.626 97.4637 105.288 114.776 93.8327C123.483 88.0718 133.692 85 144.132 85H160V110C160 137.614 137.614 160 110 160H60Z" fill="url(#paint1_linear_187_1022)"/>
<defs>
<filter id="filter0_d_187_1022" x="0" y="0" width="170" height="170" filterUnits="userSpaceOnUse" color-interpolation-filters="sRGB">
<feFlood flood-opacity="0" result="BackgroundImageFix"/>
<feColorMatrix in="SourceAlpha" type="matrix" values="0 0 0 0 0 0 0 0 0 0 0 0 0 0 0 0 0 0 127 0" result="hardAlpha"/>
<feOffset/>
<feGaussianBlur stdDeviation="5"/>
<feComposite in2="hardAlpha" operator="out"/>
<feColorMatrix type="matrix" values="0 0 0 0 0 0 0 0 0 0 0 0 0 0 0 0 0 0 0.2 0"/>
<feBlend mode="normal" in2="BackgroundImageFix" result="effect1_dropShadow_187_1022"/>
<feBlend mode="normal" in="SourceGraphic" in2="effect1_dropShadow_187_1022" result="shape"/>
</filter>
<linearGradient id="paint0_linear_187_1022" x1="65.5" y1="235" x2="160" y2="235" gradientUnits="userSpaceOnUse">
<stop stop-color="#90DE58"/>
<stop offset="1" stop-color="#BBFF8B"/>
</linearGradient>
<linearGradient id="paint1_linear_187_1022" x1="27.125" y1="160" x2="27" y2="85" gradientUnits="userSpaceOnUse">
<stop stop-color="#90DE58"/>
<stop offset="1" stop-color="#BBFF8B"/>
</linearGradient>
</defs>
</svg>
