<svg width="30" height="30" viewBox="0 0 30 30" fill="none" xmlns="http://www.w3.org/2000/svg">
<circle cx="15" cy="15" r="15" fill="#F5F5F5"/>
<path d="M11.4716 9.416C12.2609 9.416 12.8582 9.73067 13.2636 10.36C13.6689 10.9787 13.8716 11.8533 13.8716 12.984C13.8716 14.1147 13.6742 15 13.2796 15.64C12.8956 16.2693 12.2929 16.584 11.4716 16.584C10.9702 16.584 10.5436 16.44 10.1916 16.152C9.83956 15.864 9.5729 15.4533 9.39156 14.92C9.2209 14.376 9.13556 13.7307 9.13556 12.984C9.13556 11.8533 9.32223 10.9787 9.69556 10.36C10.0689 9.73067 10.6609 9.416 11.4716 9.416ZM11.4716 10.408C11.0662 10.408 10.7676 10.6267 10.5756 11.064C10.3942 11.4907 10.3036 12.1307 10.3036 12.984C10.3036 13.8373 10.3942 14.4827 10.5756 14.92C10.7676 15.3573 11.0662 15.576 11.4716 15.576C11.8876 15.576 12.1969 15.3627 12.3996 14.936C12.6022 14.4987 12.7036 13.848 12.7036 12.984C12.7036 12.1307 12.6022 11.4907 12.3996 11.064C12.1969 10.6267 11.8876 10.408 11.4716 10.408ZM18.7836 9.576L12.4476 21H11.2156L17.5516 9.576H18.7836ZM18.4636 13.992C18.9862 13.992 19.4236 14.136 19.7756 14.424C20.1276 14.7013 20.3942 15.1067 20.5756 15.64C20.7676 16.1627 20.8636 16.8027 20.8636 17.56C20.8636 18.6907 20.6662 19.576 20.2716 20.216C19.8876 20.8453 19.2849 21.16 18.4636 21.16C17.9622 21.16 17.5356 21.016 17.1836 20.728C16.8316 20.44 16.5649 20.0293 16.3836 19.496C16.2129 18.952 16.1276 18.3067 16.1276 17.56C16.1276 16.4293 16.3142 15.5547 16.6876 14.936C17.0609 14.3067 17.6529 13.992 18.4636 13.992ZM18.4636 15C18.0582 15 17.7596 15.2133 17.5676 15.64C17.3862 16.0667 17.2956 16.7067 17.2956 17.56C17.2956 18.424 17.3862 19.0747 17.5676 19.512C17.7596 19.9387 18.0582 20.152 18.4636 20.152C18.8796 20.152 19.1889 19.9387 19.3916 19.512C19.5942 19.0853 19.6956 18.4347 19.6956 17.56C19.6956 16.7067 19.5942 16.0667 19.3916 15.64C19.1889 15.2133 18.8796 15 18.4636 15Z" fill="black"/>
</svg>
